<svg version="1.1" id="Layer_1" xmlns="http://www.w3.org/2000/svg" xmlns:xlink="http://www.w3.org/1999/xlink" x="0px" y="0px"
	 width="100%" viewBox="0 0 1847 852" enable-background="new 0 0 1847 852" xml:space="preserve">
<path fill="#FEFEFE" opacity="1.000000" stroke="none" 
	d="
M1416.000000,853.000000 
	C944.000000,853.000000 472.500000,853.000000 1.000000,853.000000 
	C1.000000,569.000000 1.000000,285.000000 1.000000,1.000000 
	C616.666687,1.000000 1232.333374,1.000000 1848.000000,1.000000 
	C1848.000000,285.000000 1848.000000,569.000000 1848.000000,853.000000 
	C1704.166626,853.000000 1560.333374,853.000000 1416.000000,853.000000 
M187.260498,133.943039 
	C185.594803,134.114807 183.929108,134.286575 181.563843,134.231552 
	C158.147125,137.375336 137.560669,146.708710 119.836151,162.363266 
	C95.011017,184.289139 81.563103,212.144836 81.400032,244.890961 
	C80.802567,364.866241 81.160583,484.846313 81.206665,604.824585 
	C81.208572,609.801086 81.400276,614.812500 81.996223,619.748230 
	C85.806717,651.307007 99.842827,677.289307 124.961121,696.956177 
	C147.504974,714.607422 173.241241,721.375793 201.815689,721.354736 
	C566.915833,721.085205 932.016174,721.156372 1297.116455,721.142273 
	C1417.094604,721.137634 1537.072876,721.147217 1657.051025,721.116821 
	C1667.723633,721.114136 1678.278809,720.202148 1688.968506,715.449341 
	C1697.291992,711.783081 1706.258667,709.121826 1713.828247,704.277588 
	C1747.675781,682.616577 1767.469604,651.518250 1767.735596,611.192139 
	C1768.538208,489.561859 1768.067505,367.922760 1767.967896,246.287155 
	C1767.944214,217.394211 1757.547119,192.297256 1738.356201,170.935638 
	C1728.733398,160.224533 1717.573975,151.271317 1703.673950,145.076416 
	C1690.041870,137.936447 1675.507324,134.279037 1659.416260,133.391235 
	C1656.422607,133.316818 1653.428955,133.177292 1650.435303,133.177277 
	C1462.491943,133.175735 1274.548706,133.188187 1086.605347,133.193802 
	C789.361267,133.202698 492.117188,133.205933 194.873108,133.247208 
	C192.584061,133.247528 190.295059,133.744308 187.260498,133.943039 
z"/>
<path fill="#ACABAC" opacity="1.000000" stroke="none" 
	d="
M1688.156738,715.599976 
	C1678.278809,720.202148 1667.723633,721.114136 1657.051025,721.116821 
	C1537.072876,721.147217 1417.094604,721.137634 1297.116455,721.142273 
	C932.016174,721.156372 566.915833,721.085205 201.815689,721.354736 
	C173.241241,721.375793 147.504974,714.607422 124.961121,696.956177 
	C99.842827,677.289307 85.806717,651.307007 81.996223,619.748230 
	C81.400276,614.812500 81.208572,609.801086 81.206665,604.824585 
	C81.160583,484.846313 80.802567,364.866241 81.400032,244.890961 
	C81.563103,212.144836 95.011017,184.289139 119.836151,162.363266 
	C137.560669,146.708710 158.147125,137.375336 181.760269,134.710312 
	C180.881790,138.114761 183.939606,141.935120 179.691101,144.421692 
	C178.918396,144.632935 178.451904,144.662567 177.937897,144.410797 
	C177.636154,144.344940 177.381943,144.560471 176.840317,144.956329 
	C150.984268,150.391022 129.714523,162.816193 113.343376,183.270416 
	C99.374557,200.723160 92.487610,220.895187 90.458176,243.123367 
	C89.719116,245.090729 89.051811,246.949265 89.049225,248.808701 
	C88.989883,291.429016 89.002510,334.049469 89.002693,376.669891 
	C89.003014,452.587494 88.991478,528.505127 89.078377,604.422668 
	C89.080498,606.275879 90.179749,608.127869 90.905502,610.408752 
	C93.280289,666.983154 138.798157,711.703857 194.240860,711.726562 
	C436.852234,711.825806 679.463684,711.804138 922.075134,711.810913 
	C1160.854492,711.817566 1399.633789,711.781372 1638.413086,711.859741 
	C1653.273071,711.864624 1668.031128,711.502930 1682.671143,708.482422 
	C1684.572021,711.130615 1686.364380,713.365295 1688.156738,715.599976 
z"/>
<path fill="#AEADAD" opacity="1.000000" stroke="none" 
	d="
M179.997314,144.240067 
	C183.939606,141.935120 180.881790,138.114761 182.110046,134.823700 
	C183.929108,134.286575 185.594803,134.114807 187.929474,134.268951 
	C190.576614,134.726517 192.554749,134.973312 194.532913,134.973495 
	C413.295593,134.993561 632.058228,134.995239 850.820923,134.997849 
	C1118.567749,135.001053 1386.314697,135.006836 1654.061523,134.957260 
	C1656.091064,134.956894 1658.120483,134.200317 1660.149902,133.796844 
	C1675.507324,134.279037 1690.041870,137.936447 1703.826904,145.718903 
	C1703.295166,146.903625 1702.660889,147.824280 1701.916992,147.923645 
	C1698.386353,148.395309 1697.968262,150.380600 1698.641602,153.183289 
	C1693.590454,151.363983 1688.956299,149.485748 1684.228882,147.882507 
	C1669.260620,142.805954 1653.702271,143.262802 1638.221924,143.260513 
	C1553.898560,143.247986 1469.575317,143.308777 1385.251953,143.310272 
	C1129.448975,143.314819 873.645996,143.195679 617.843079,143.340515 
	C471.894379,143.423157 325.945892,143.926285 179.997314,144.240067 
z"/>
<path fill="#A6A6A6" opacity="1.000000" stroke="none" 
	d="
M1699.016113,153.250244 
	C1697.968262,150.380600 1698.386353,148.395309 1701.916992,147.923645 
	C1702.660889,147.824280 1703.295166,146.903625 1704.052734,145.964294 
	C1717.573975,151.271317 1728.733398,160.224533 1738.356201,170.935638 
	C1757.547119,192.297256 1767.944214,217.394211 1767.967896,246.287155 
	C1768.067505,367.922760 1768.538208,489.561859 1767.735596,611.192139 
	C1767.469604,651.518250 1747.675781,682.616577 1713.828247,704.277588 
	C1706.258667,709.121826 1697.291992,711.783081 1688.562622,715.524658 
	C1686.364380,713.365295 1684.572021,711.130615 1682.948730,708.292236 
	C1701.622070,702.274963 1717.332153,692.305542 1730.369629,678.206848 
	C1747.382324,659.809509 1756.295776,637.872009 1758.549316,612.869934 
	C1759.285889,610.903625 1759.949707,609.045532 1759.951660,607.186707 
	C1760.008301,552.568970 1760.000488,497.951141 1759.999390,443.333344 
	C1759.998169,377.392334 1760.008301,311.451294 1759.912842,245.510391 
	C1759.910156,243.679382 1758.760132,241.850052 1758.002075,239.615845 
	C1755.470215,214.677292 1746.149048,193.308853 1729.041870,175.382523 
	C1720.304565,166.226715 1709.843994,159.514847 1699.016113,153.250244 
z"/>
<path fill="#A2A1A2" opacity="1.000000" stroke="none" 
	d="
M1659.783081,133.594025 
	C1658.120483,134.200317 1656.091064,134.956894 1654.061523,134.957260 
	C1386.314697,135.006836 1118.567749,135.001053 850.820923,134.997849 
	C632.058228,134.995239 413.295593,134.993561 194.532913,134.973495 
	C192.554749,134.973312 190.576614,134.726517 188.302246,134.302063 
	C190.295059,133.744308 192.584061,133.247528 194.873108,133.247208 
	C492.117188,133.205933 789.361267,133.202698 1086.605347,133.193802 
	C1274.548706,133.188187 1462.491943,133.175735 1650.435303,133.177277 
	C1653.428955,133.177292 1656.422607,133.316818 1659.783081,133.594025 
z"/>
<path fill="#010101" opacity="1.000000" stroke="none" 
	d="
M1698.641602,153.183289 
	C1709.843994,159.514847 1720.304565,166.226715 1729.041870,175.382523 
	C1746.149048,193.308853 1755.470215,214.677292 1757.932861,240.078857 
	C1758.043213,246.105057 1758.110718,251.264160 1758.111816,256.423279 
	C1758.134888,375.274780 1758.150879,494.126282 1758.168091,612.977783 
	C1756.295776,637.872009 1747.382324,659.809509 1730.369629,678.206848 
	C1717.332153,692.305542 1701.622070,702.274963 1682.840088,707.878845 
	C1668.031128,711.502930 1653.273071,711.864624 1638.413086,711.859741 
	C1399.633789,711.781372 1160.854492,711.817566 922.075134,711.810913 
	C679.463684,711.804138 436.852234,711.825806 194.240860,711.726562 
	C138.798157,711.703857 93.280289,666.983154 90.989128,609.947998 
	C90.951607,531.653931 90.988739,454.248932 90.978020,376.843933 
	C90.971840,332.234283 90.888290,287.624603 90.839569,243.014954 
	C92.487610,220.895187 99.374557,200.723160 113.343376,183.270416 
	C129.714523,162.816193 150.984268,150.391022 177.058807,144.985565 
	C177.564728,144.834457 177.985413,144.692184 177.985413,144.692200 
	C178.451904,144.662567 178.918396,144.632935 179.691101,144.421692 
	C325.945892,143.926285 471.894379,143.423157 617.843079,143.340515 
	C873.645996,143.195679 1129.448975,143.314819 1385.251953,143.310272 
	C1469.575317,143.308777 1553.898560,143.247986 1638.221924,143.260513 
	C1653.702271,143.262802 1669.260620,142.805954 1684.228882,147.882507 
	C1688.956299,149.485748 1693.590454,151.363983 1698.641602,153.183289 
M901.451111,302.064819 
	C899.414856,302.064819 897.378601,302.064819 895.407532,302.064819 
	C895.989502,309.259216 896.838745,315.497223 896.930420,321.746338 
	C897.145752,336.421906 897.103210,351.103943 896.933655,365.780701 
	C896.884155,370.068604 898.482178,371.632690 903.446228,370.873779 
	C907.371765,370.873779 911.297302,370.873779 915.614441,370.873779 
	C915.614441,358.780151 915.534424,347.309875 915.664795,335.842041 
	C915.702393,332.539703 915.982361,329.153259 916.780334,325.962769 
	C919.143250,316.515106 928.385010,310.595581 938.142761,311.961670 
	C946.828796,313.177704 950.937805,318.860016 950.973999,329.746002 
	C951.014465,341.907959 951.028198,354.070007 951.080261,366.231903 
	C951.086365,367.669189 951.260376,369.105774 951.360962,370.608582 
	C955.826660,370.608582 959.895508,370.608582 964.126343,370.608582 
	C964.126343,354.187653 964.871582,338.015442 963.903809,321.946381 
	C963.043213,307.655945 953.027710,299.921967 938.643494,299.780884 
	C929.050476,299.686798 921.967224,304.199463 915.613159,311.700226 
	C915.401367,307.987274 915.235107,305.072235 915.067932,302.141846 
	C910.639221,302.141846 906.502991,302.141846 901.451111,302.064819 
M1480.004883,483.599609 
	C1471.611938,483.599609 1463.218994,483.599609 1454.719482,483.599609 
	C1454.719482,516.848938 1454.719482,550.012451 1454.719482,582.824890 
	C1463.596069,582.824890 1472.049438,582.824890 1481.354248,582.915100 
	C1486.612305,582.407227 1487.250366,581.493103 1486.333862,576.397583 
	C1486.013428,574.616211 1486.014282,572.761597 1486.012817,570.940369 
	C1485.993774,545.958191 1485.993530,520.976013 1486.013794,495.993835 
	C1486.015381,494.173645 1486.052368,492.327484 1486.346680,490.538452 
	C1487.173340,485.516571 1486.021606,484.178741 1480.004883,483.599609 
M888.338684,313.250305 
	C889.536316,313.612518 890.723938,314.132904 891.939636,314.209229 
	C892.195496,314.225281 892.996277,311.998383 892.791382,311.850525 
	C891.651062,311.027527 890.278320,310.526672 889.042053,309.056152 
	C889.628845,306.844696 890.215576,304.633270 890.842773,302.269409 
	C886.259521,302.269409 881.809143,302.269409 877.255981,302.269409 
	C872.231934,319.060699 867.256714,335.688965 861.911499,353.553619 
	C857.069702,338.872711 852.602295,325.555786 848.293030,312.187897 
	C844.904480,301.676239 844.991028,301.644379 833.974182,302.008331 
	C833.491882,302.024261 833.015808,302.229889 832.221802,302.424316 
	C826.876343,319.165161 821.492493,336.026276 815.738342,354.047150 
	C810.420898,335.858032 805.472229,318.930573 800.593323,302.241547 
	C795.770386,302.241547 791.541077,302.241547 787.133118,302.241547 
	C794.572998,325.323029 801.895081,348.038971 809.188721,370.666779 
	C821.434143,371.388733 821.434265,371.388794 825.019287,360.146149 
	C825.322693,359.194672 825.607849,358.237213 825.924805,357.290344 
	C830.084106,344.863190 834.247559,332.437378 838.410034,320.011230 
	C838.804077,320.002441 839.198120,319.993652 839.592163,319.984863 
	C844.937134,336.858307 850.282104,353.731750 855.716919,370.888672 
	C857.820312,370.888672 859.845886,370.618195 861.772034,370.941193 
	C866.812500,371.786469 868.809937,369.722137 870.337524,364.820648 
	C875.769287,347.391968 881.864502,330.170074 888.338684,313.250305 
M1497.915771,483.986481 
	C1493.255981,483.168732 1492.000244,486.045685 1492.064819,489.772736 
	C1492.130371,493.563232 1492.936523,497.344238 1492.955078,501.131653 
	C1493.051636,520.775208 1493.002319,540.419434 1492.998535,560.063477 
	C1492.997559,565.390503 1493.283813,570.740173 1492.891235,576.038879 
	C1492.386108,582.857239 1492.148926,582.839661 1499.897827,583.218506 
	C1508.143188,583.218506 1516.388672,583.218506 1524.992310,583.218506 
	C1524.992310,566.081665 1524.830444,549.606140 1525.096680,533.137634 
	C1525.170898,528.548218 1526.003052,523.820984 1527.372681,519.433105 
	C1530.482422,509.469513 1540.927612,503.103302 1551.175537,504.349243 
	C1561.180542,505.565704 1567.034180,512.930054 1567.160278,525.068115 
	C1567.340332,542.396057 1567.262817,559.726624 1567.294434,577.056091 
	C1567.297974,579.009094 1567.294922,580.962097 1567.294922,583.044556 
	C1576.145264,583.044556 1584.394897,583.044556 1593.068848,583.044556 
	C1593.068848,581.452026 1593.067993,580.155945 1593.069092,578.859802 
	C1593.085815,559.697388 1593.161255,540.534668 1593.069458,521.372803 
	C1593.051270,517.574219 1592.713989,513.714050 1591.969727,509.993195 
	C1589.029541,495.293121 1580.754639,485.204224 1565.751343,481.933136 
	C1550.497803,478.607452 1536.954956,481.504608 1526.837036,494.529938 
	C1526.131592,495.438141 1525.285645,496.237183 1523.741455,497.918213 
	C1523.741455,492.307434 1523.741455,487.887482 1523.741455,482.695770 
	C1515.128052,483.141052 1506.930420,483.564819 1497.915771,483.986481 
M210.757584,305.177216 
	C203.103149,305.233490 195.447556,305.227295 187.794662,305.367493 
	C182.511826,305.464233 180.174408,307.762573 180.164200,313.038025 
	C180.113617,339.172577 180.116409,365.307404 180.168671,391.441986 
	C180.179764,396.984772 182.465546,399.047272 188.223724,399.108856 
	C196.046280,399.192535 203.869141,399.247803 211.722702,400.211670 
	C211.713593,463.188965 211.673248,526.166260 211.716156,589.143555 
	C211.727661,606.040588 223.845245,618.080505 240.655304,618.086182 
	C318.627502,618.112610 396.599731,618.122437 474.571899,618.083130 
	C477.200684,618.081787 479.925354,617.831238 482.441498,617.118530 
	C494.881989,613.594910 502.317383,603.171143 502.321869,589.341431 
	C502.346161,514.368652 502.345093,439.395905 502.331879,364.423126 
	C502.330109,354.270325 502.210541,344.117554 502.384766,333.080902 
	C501.916260,328.801514 503.570190,324.388947 499.607422,320.498535 
	C473.124176,294.498840 446.682037,268.451874 420.635345,242.017410 
	C415.341583,236.644775 409.971161,234.793976 402.064911,235.900970 
	C348.447113,235.895203 294.829315,235.858688 241.211563,235.901855 
	C224.419846,235.915375 211.807907,248.476456 211.714142,265.127594 
	C211.639130,278.448364 211.665619,291.769714 210.757584,305.177216 
M865.138550,501.510498 
	C864.893127,500.370789 864.644104,499.231842 864.402954,498.091248 
	C857.225220,464.142548 834.293152,442.073334 799.818848,439.152191 
	C777.159058,437.232117 754.228516,438.505219 731.419128,438.372192 
	C731.148926,438.370605 730.876831,438.686218 730.409607,438.974823 
	C730.409607,488.431671 730.409607,537.998291 730.409607,587.065613 
	C755.266602,587.065613 779.958252,588.433838 804.421997,586.659607 
	C826.468323,585.060791 843.845154,573.081116 855.354248,553.815857 
	C864.832214,537.950378 867.537964,520.607605 865.138550,501.510498 
M611.031982,447.552734 
	C611.031982,494.273621 611.031982,540.994507 611.031982,587.769043 
	C620.565918,587.769043 629.472473,587.769043 639.002197,587.769043 
	C639.002197,569.279297 639.002197,551.075256 639.002197,532.619141 
	C648.611389,532.619141 657.601868,532.849182 666.576355,532.568848 
	C682.902710,532.058960 697.364563,526.580078 706.575500,512.649109 
	C723.806885,486.587830 714.318237,444.171326 673.143738,439.230316 
	C654.090271,436.943909 634.590088,438.375031 615.292114,438.142242 
	C614.012024,438.126801 612.729675,438.294739 611.029053,438.404419 
	C611.029053,441.318359 611.029053,443.944641 611.031982,447.552734 
M1366.910889,491.103363 
	C1369.236816,462.501648 1353.416992,441.768250 1324.789185,438.913239 
	C1306.470703,437.086365 1287.843872,438.345276 1269.355225,438.240692 
	C1267.913696,438.232513 1266.471313,438.381805 1265.077515,438.455353 
	C1265.077515,486.950989 1265.077515,535.037720 1265.077515,583.123779 
	C1274.145752,583.123779 1282.896606,583.123779 1292.170654,583.123779 
	C1292.170654,566.084473 1292.170654,549.343628 1292.170654,532.069458 
	C1301.478638,532.069458 1310.268188,532.031677 1319.057251,532.076843 
	C1342.243164,532.196045 1364.150879,516.785461 1366.910889,491.103363 
M911.545410,553.500244 
	C911.545410,545.885803 911.545410,538.271301 911.545410,529.975830 
	C931.664612,529.975830 951.204163,529.975830 970.820435,529.975830 
	C970.820435,521.032104 970.820435,512.781799 970.820435,504.015259 
	C950.982483,504.015259 931.421936,504.015259 911.947021,504.015259 
	C911.947021,490.605835 911.947021,477.720215 911.947021,464.415039 
	C934.151184,464.415039 955.924622,464.415039 977.823242,464.415039 
	C977.823242,455.563141 977.823242,447.142426 977.823242,438.430969 
	C946.501648,438.430969 915.451233,438.430969 884.171204,438.430969 
	C884.171204,488.356995 884.171204,538.030945 884.171204,587.743652 
	C893.391418,587.743652 902.273804,587.743652 911.544250,587.743652 
	C911.544250,576.445129 911.544250,565.472778 911.545410,553.500244 
M1195.956055,498.566437 
	C1183.070435,484.659180 1167.273560,478.668274 1148.376465,480.967316 
	C1126.058105,483.682587 1108.685181,499.002350 1103.504150,520.623169 
	C1098.299805,542.340637 1107.209595,565.176453 1125.634644,577.343933 
	C1143.294678,589.006165 1170.676636,588.338440 1187.365845,575.838501 
	C1211.647339,557.651794 1215.652466,523.644226 1195.956055,498.566437 
M1644.811646,517.517456 
	C1644.811646,513.776123 1644.811646,510.034821 1644.811646,505.778381 
	C1653.661743,505.778381 1661.735962,505.778381 1669.835938,505.778381 
	C1669.835938,497.996277 1669.835938,490.753448 1669.835938,482.909607 
	C1661.321167,482.909607 1653.105347,482.909607 1644.476318,482.909607 
	C1644.476318,473.057037 1644.476318,463.808319 1644.476318,454.481689 
	C1635.766113,454.481689 1627.506592,454.481689 1618.651367,454.481689 
	C1618.651367,464.137451 1618.651367,473.505859 1618.651367,483.156616 
	C1612.419189,483.156616 1606.783569,483.156616 1600.877686,483.156616 
	C1600.877686,490.860718 1600.877686,498.260406 1600.877686,506.175842 
	C1606.967407,506.175842 1612.709717,506.175842 1618.856567,506.175842 
	C1618.856567,522.482727 1618.760132,538.275452 1618.890137,554.066223 
	C1618.977417,564.665222 1622.610718,573.929749 1631.879272,579.607361 
	C1644.658936,587.435730 1658.105469,586.235657 1671.921509,581.089294 
	C1670.501587,574.206848 1669.176025,567.717957 1667.804688,561.238770 
	C1667.678101,560.640625 1667.260986,560.103943 1666.898315,559.377563 
	C1665.957886,559.625549 1665.190430,559.815125 1664.430298,560.030334 
	C1651.297974,563.749268 1644.839111,559.017761 1644.748047,545.490051 
	C1644.687500,536.497620 1644.784180,527.504150 1644.811646,517.517456 
M1042.261353,483.083618 
	C1037.341187,483.083618 1032.421021,483.083618 1027.551025,483.083618 
	C1027.551025,491.121399 1027.551025,498.373352 1027.551025,506.171814 
	C1033.443970,506.171814 1039.004150,506.171814 1044.904053,506.171814 
	C1044.904053,522.357910 1044.795898,537.991150 1044.982300,553.620911 
	C1045.027222,557.388855 1045.548584,561.306335 1046.702881,564.879761 
	C1052.722900,583.516052 1078.852539,591.609192 1097.707764,580.604065 
	C1096.283447,573.651245 1094.839233,566.601929 1093.381592,559.486511 
	C1089.908569,560.113770 1087.006470,560.930542 1084.065430,561.110901 
	C1077.007446,561.543640 1071.370605,557.706970 1071.201050,551.422302 
	C1070.798462,536.493347 1071.071411,521.546082 1071.071411,506.066010 
	C1079.513550,506.066010 1087.590576,506.066010 1095.797729,506.066010 
	C1095.797729,498.150696 1095.797729,490.783478 1095.797729,482.963715 
	C1087.384644,482.963715 1079.309692,482.963715 1070.883301,482.963715 
	C1070.883301,473.249817 1070.883301,463.988770 1070.883301,454.451111 
	C1062.122803,454.451111 1053.733032,454.451111 1044.907959,454.451111 
	C1044.907959,462.837158 1044.984375,470.964478 1044.832153,479.087494 
	C1044.807129,480.423462 1043.778198,481.740601 1042.261353,483.083618 
M620.562988,370.886505 
	C629.051453,370.888275 637.539917,370.892181 646.028381,370.891449 
	C675.826416,370.888885 694.235779,355.141022 697.414124,325.695312 
	C700.046814,301.305359 686.885620,275.337585 658.327393,271.189209 
	C644.452454,269.173767 630.132751,270.211395 616.013550,269.902588 
	C614.748169,269.874908 613.476990,270.110382 612.261414,270.218933 
	C612.261414,303.901276 612.261414,337.240448 612.261414,370.887878 
	C614.968872,370.887878 617.277405,370.887878 620.562988,370.886505 
M1423.997559,481.139191 
	C1413.700562,482.873962 1406.582642,489.023132 1400.687256,497.565796 
	C1400.687256,492.841309 1400.687256,488.116791 1400.687256,483.534851 
	C1392.287109,483.534851 1384.393555,483.534851 1376.609131,483.534851 
	C1376.609131,516.997437 1376.609131,550.043518 1376.609131,583.171936 
	C1385.267822,583.171936 1393.546509,583.171936 1402.332520,583.171936 
	C1402.332520,581.318909 1402.331177,579.700500 1402.332764,578.082092 
	C1402.346680,563.585754 1402.120239,549.083069 1402.506592,534.596619 
	C1402.640991,529.553589 1403.715454,524.351746 1405.371338,519.572571 
	C1408.530762,510.453888 1416.479370,505.124237 1426.138794,505.318207 
	C1430.702393,505.409882 1435.246704,506.447571 1440.060303,507.091431 
	C1441.730957,499.520996 1443.406006,491.931122 1445.108032,484.218536 
	C1438.456787,480.727997 1431.763794,480.300140 1423.997559,481.139191 
M1240.988037,339.500000 
	C1240.988037,316.405670 1240.988037,293.311340 1240.988037,270.176575 
	C1236.409058,270.176575 1232.344971,270.176575 1227.836792,270.176575 
	C1227.836792,283.869141 1227.836792,297.239471 1227.836792,311.373901 
	C1226.767334,310.377625 1226.308105,309.985870 1225.889526,309.554688 
	C1215.035767,298.375305 1200.472412,296.545868 1187.294434,304.711578 
	C1173.826294,313.057159 1167.895752,330.791168 1172.825073,347.978668 
	C1177.966064,365.903839 1194.999146,376.609192 1211.911133,371.578430 
	C1217.743408,369.843475 1222.792603,365.475647 1228.250000,362.280945 
	C1228.250000,364.466797 1228.250000,367.508331 1228.250000,370.617310 
	C1232.703613,370.617310 1236.623535,370.617310 1240.985596,370.617310 
	C1240.985596,360.400818 1240.985596,350.450409 1240.988037,339.500000 
M1130.076782,327.515167 
	C1123.197632,328.377350 1116.037842,328.321747 1109.506348,330.320221 
	C1100.081177,333.204102 1095.220947,341.391205 1095.445557,351.006226 
	C1095.652344,359.856598 1101.513184,367.824036 1110.407349,370.784821 
	C1123.094849,375.008453 1134.263916,373.058197 1143.235596,361.216217 
	C1143.483154,364.896942 1143.675659,367.759338 1143.859131,370.485901 
	C1148.255493,370.485901 1152.140015,370.485901 1156.274048,370.485901 
	C1156.274048,356.277130 1156.273438,342.471191 1156.274292,328.665283 
	C1156.275146,314.796570 1149.604980,305.188568 1137.300659,301.338074 
	C1123.433716,296.998596 1107.935547,301.273987 1100.689209,311.482819 
	C1099.764526,312.785583 1099.052734,314.239502 1097.977661,316.075317 
	C1101.815186,317.932098 1105.317993,319.626953 1108.737549,321.281433 
	C1115.462524,311.844116 1124.411621,309.132538 1134.335083,313.175201 
	C1141.242798,315.989288 1144.489502,322.030060 1143.069702,329.825928 
	C1139.044434,329.096161 1135.008911,328.364563 1130.076782,327.515167 
M1028.273926,367.295868 
	C1036.804321,372.230621 1045.854248,373.917206 1055.592163,371.939056 
	C1075.846313,367.824615 1088.024414,347.242554 1082.444702,326.416809 
	C1077.023682,306.183319 1056.375977,294.697083 1036.865723,301.454803 
	C1022.747559,306.344849 1014.342773,316.365112 1012.400513,331.370239 
	C1010.483032,346.183777 1015.365051,358.156494 1028.273926,367.295868 
M715.515503,356.942841 
	C720.391602,364.336365 727.055786,369.196716 735.657776,371.487213 
	C751.838501,375.795715 768.051514,369.537720 776.255676,355.700043 
	C784.803345,341.283020 782.607727,321.972137 771.055481,309.963257 
	C760.671021,299.168335 742.376709,296.564545 728.529663,303.910614 
	C710.413147,313.521729 704.358215,337.131622 715.515503,356.942841 
M996.922546,300.500122 
	C996.922546,290.406036 996.922546,280.311981 996.922546,270.112366 
	C992.249084,270.112366 988.185669,270.112366 983.972168,270.112366 
	C983.972168,303.734772 983.972168,337.093292 983.972168,370.578064 
	C988.348328,370.578064 992.403748,370.578064 996.931946,370.578064 
	C996.931946,347.349701 996.931946,324.424896 996.922546,300.500122 
M1460.578491,438.843201 
	C1452.195923,443.626526 1449.146118,452.091583 1453.000732,459.875977 
	C1456.610596,467.166077 1465.464722,470.392120 1473.536743,467.358276 
	C1481.181763,464.484924 1485.362183,456.099426 1483.022827,448.330109 
	C1480.339844,439.419891 1471.651978,435.472809 1460.578491,438.843201 
z"/>
<path fill="#B8B7B8" opacity="1.000000" stroke="none" 
	d="
M90.458176,243.123367 
	C90.888290,287.624603 90.971840,332.234283 90.978020,376.843933 
	C90.988739,454.248932 90.951607,531.653931 90.850922,609.519653 
	C90.179749,608.127869 89.080498,606.275879 89.078377,604.422668 
	C88.991478,528.505127 89.003014,452.587494 89.002693,376.669891 
	C89.002510,334.049469 88.989883,291.429016 89.049225,248.808701 
	C89.051811,246.949265 89.719116,245.090729 90.458176,243.123367 
z"/>
<path fill="#AEADAD" opacity="1.000000" stroke="none" 
	d="
M177.937897,144.410797 
	C177.985413,144.692184 177.564728,144.834457 177.346222,144.805237 
	C177.381943,144.560471 177.636154,144.344940 177.937897,144.410797 
z"/>
<path fill="#B8B7B8" opacity="1.000000" stroke="none" 
	d="
M1758.549316,612.869934 
	C1758.150879,494.126282 1758.134888,375.274780 1758.111816,256.423279 
	C1758.110718,251.264160 1758.043213,246.105057 1758.075928,240.482941 
	C1758.760132,241.850052 1759.910156,243.679382 1759.912842,245.510391 
	C1760.008301,311.451294 1759.998169,377.392334 1759.999390,443.333344 
	C1760.000488,497.951141 1760.008301,552.568970 1759.951660,607.186707 
	C1759.949707,609.045532 1759.285889,610.903625 1758.549316,612.869934 
z"/>
<path fill="#F4F3F3" opacity="1.000000" stroke="none" 
	d="
M502.145508,333.964752 
	C502.210541,344.117554 502.330109,354.270325 502.331879,364.423126 
	C502.345093,439.395905 502.346161,514.368652 502.321869,589.341431 
	C502.317383,603.171143 494.881989,613.594910 482.441498,617.118530 
	C479.925354,617.831238 477.200684,618.081787 474.571899,618.083130 
	C396.599731,618.122437 318.627502,618.112610 240.655304,618.086182 
	C223.845245,618.080505 211.727661,606.040588 211.716156,589.143555 
	C211.673248,526.166260 211.713593,463.188965 212.191467,399.667755 
	C257.892456,399.151398 303.124725,399.158661 348.356842,399.240875 
	C352.472504,399.248352 356.066956,398.823914 357.539581,393.730164 
	C357.755157,366.692352 357.769745,340.015686 357.755615,313.338989 
	C357.755188,312.542572 357.454559,311.746277 357.241333,310.584747 
	C355.529358,305.794342 351.922272,305.325287 347.838135,305.332306 
	C307.588165,305.401428 267.338104,305.409027 227.088043,305.399353 
	C221.941025,305.398102 216.794052,305.198486 211.647049,305.090759 
	C211.665619,291.769714 211.639130,278.448364 211.714142,265.127594 
	C211.807907,248.476456 224.419846,235.915375 241.211563,235.901855 
	C294.829315,235.858688 348.447113,235.895203 402.530670,236.451874 
	C402.991852,263.791260 402.984222,290.579742 402.984222,317.368225 
	C402.984222,328.738617 408.276764,333.974091 419.783234,333.975098 
	C447.237305,333.977448 474.691406,333.968903 502.145508,333.964752 
M345.302429,468.361908 
	C347.899658,472.786774 347.387848,476.987061 345.180450,481.553101 
	C339.749847,492.786255 334.521729,504.126587 329.569366,515.578247 
	C326.523895,522.620483 322.449677,528.140808 314.512665,529.908203 
	C313.087585,530.225525 311.766449,531.095337 310.452179,531.810791 
	C301.226105,536.832886 291.834290,541.671509 286.294891,551.259155 
	C282.663177,557.544922 284.920837,564.340393 291.805817,566.546448 
	C294.825958,567.514221 298.324829,567.574036 301.528717,567.258423 
	C307.943939,566.626404 312.568939,562.481812 316.132385,557.636780 
	C322.031067,549.616760 327.520844,541.275513 332.800446,532.830505 
	C334.922058,529.436890 337.065643,526.748596 341.137482,525.762695 
	C352.603577,522.986511 363.996399,519.897400 375.503174,517.310059 
	C377.334625,516.898254 379.787689,518.114014 381.640472,519.141541 
	C387.867126,522.594910 393.715302,526.819885 400.155457,529.775146 
	C407.210297,533.012451 414.872894,533.797119 422.604340,531.827271 
	C427.153778,530.668152 429.831665,527.696960 430.460175,523.161926 
	C431.062225,518.817871 429.389557,515.068970 425.508820,513.050049 
	C422.172424,511.314270 418.440063,509.426636 414.827972,509.310455 
	C405.245514,509.002228 395.624268,509.445770 386.038177,509.958710 
	C382.839233,510.129852 380.286194,510.030975 378.149414,507.271942 
	C373.670685,501.488922 368.871796,495.952393 364.436859,490.137299 
	C359.014923,483.028137 357.350739,475.747406 360.463074,466.532562 
	C363.161926,458.542023 363.394745,449.589691 363.853729,441.016174 
	C364.167389,435.157715 361.954010,429.637421 355.898743,427.203156 
	C347.317993,423.753540 340.635345,429.154846 340.074615,439.826385 
	C339.568726,449.453888 341.447235,458.693146 345.302429,468.361908 
z"/>
<path fill="#DA2F2C" opacity="1.000000" stroke="none" 
	d="
M357.334351,394.091248 
	C356.066956,398.823914 352.472504,399.248352 348.356842,399.240875 
	C303.124725,399.158661 257.892456,399.151398 212.176056,399.219543 
	C203.869141,399.247803 196.046280,399.192535 188.223724,399.108856 
	C182.465546,399.047272 180.179764,396.984772 180.168671,391.441986 
	C180.116409,365.307404 180.113617,339.172577 180.164200,313.038025 
	C180.174408,307.762573 182.511826,305.464233 187.794662,305.367493 
	C195.447556,305.227295 203.103149,305.233490 211.202316,305.133972 
	C216.794052,305.198486 221.941025,305.398102 227.088043,305.399353 
	C267.338104,305.409027 307.588165,305.401428 347.838135,305.332306 
	C351.922272,305.325287 355.529358,305.794342 356.882568,310.655945 
	C356.189667,311.367767 355.468750,311.637970 355.464294,311.919495 
	C355.278137,323.683105 355.103424,335.447418 355.040588,347.212280 
	C354.975555,359.387939 354.860077,371.567963 355.133057,383.737854 
	C355.210754,387.203705 356.565308,390.640900 357.334351,394.091248 
M272.210510,374.810211 
	C284.166351,374.332001 291.576202,367.960510 293.569946,356.443939 
	C295.253998,346.716095 289.773834,335.405487 280.689606,333.155670 
	C272.678162,331.171539 264.123138,331.382080 255.581680,330.602875 
	C255.581680,346.138092 255.581680,360.206879 255.581680,374.816132 
	C261.040710,374.816132 266.157959,374.816132 272.210510,374.810211 
M216.347244,341.564911 
	C216.347244,352.496643 216.347244,363.428375 216.347244,374.463379 
	C219.629700,374.463379 222.203369,374.463379 225.288467,374.463379 
	C225.288467,371.859497 225.230759,369.554321 225.304642,367.253387 
	C225.378662,364.947845 225.584045,362.646576 225.774597,359.677094 
	C229.043137,359.677094 232.180191,359.881409 235.281799,359.636627 
	C242.874786,359.037354 247.994141,354.316589 248.878174,347.379700 
	C249.728165,340.709778 246.278763,334.015228 239.650909,332.688171 
	C232.169952,331.190308 224.352264,331.374237 216.338882,330.802307 
	C216.338882,334.963531 216.338882,337.776123 216.347244,341.564911 
M325.037445,357.644287 
	C325.474243,355.265015 325.911011,352.885712 326.469513,349.843445 
	C320.310577,349.843445 315.235046,349.843445 310.235657,349.843445 
	C310.235657,346.061920 310.235657,342.821625 310.235657,338.936768 
	C316.427704,338.936768 322.307587,338.936768 328.516357,338.936768 
	C328.382263,336.020386 328.280273,333.801605 328.183167,331.689819 
	C318.614929,331.689819 309.715118,331.689819 300.901245,331.689819 
	C300.901245,346.167389 300.901245,360.233459 300.901245,374.414612 
	C304.067200,374.414612 306.782928,374.414612 310.063721,374.414612 
	C310.063721,368.684357 310.063721,363.290039 310.063721,357.731262 
	C315.127808,357.731262 319.619415,357.731262 325.037445,357.644287 
z"/>
<path fill="#FAFAFA" opacity="1.000000" stroke="none" 
	d="
M865.169067,501.949493 
	C867.537964,520.607605 864.832214,537.950378 855.354248,553.815857 
	C843.845154,573.081116 826.468323,585.060791 804.421997,586.659607 
	C779.958252,588.433838 755.266602,587.065613 730.409607,587.065613 
	C730.409607,537.998291 730.409607,488.431671 730.409607,438.974823 
	C730.876831,438.686218 731.148926,438.370605 731.419128,438.372192 
	C754.228516,438.505219 777.159058,437.232117 799.818848,439.152191 
	C834.293152,442.073334 857.225220,464.142548 864.402954,498.091248 
	C864.644104,499.231842 864.893127,500.370789 865.169067,501.949493 
M757.970520,465.862671 
	C757.970520,465.862671 758.208618,465.922150 757.996948,466.848450 
	C757.996948,498.668030 757.996948,530.487610 757.996948,562.729431 
	C759.997253,562.554321 761.435425,562.428406 763.662354,562.565857 
	C772.314880,562.545959 780.968323,562.594543 789.619812,562.489380 
	C801.291321,562.347473 811.821899,559.000488 820.974365,551.476685 
	C837.457947,537.926392 840.716309,513.567444 834.393311,495.282806 
	C829.005737,479.703308 818.392944,469.585907 801.576538,465.694641 
	C801.036499,465.646790 800.496399,465.598969 799.184448,465.173676 
	C785.540405,464.815155 771.896301,464.456635 757.420410,464.043152 
	C753.202576,463.772461 751.939697,466.086975 751.971313,469.911804 
	C752.057312,480.316345 751.939087,490.722565 752.028687,501.127045 
	C752.067139,505.590881 752.625244,510.053589 752.591492,514.514099 
	C752.489563,527.965149 752.125549,541.414612 752.086670,554.865356 
	C752.079773,557.248596 753.144287,559.634888 753.713989,562.019836 
	C754.290527,561.962402 754.867065,561.904968 755.443542,561.847595 
	C755.629028,560.029785 755.973999,558.212219 755.976196,556.394226 
	C756.010254,527.940735 755.969421,499.487091 756.078125,471.033997 
	C756.084473,469.374603 757.218628,467.719543 757.970520,465.862671 
z"/>
<path fill="#F9F9F9" opacity="1.000000" stroke="none" 
	d="
M611.030518,447.061829 
	C611.029053,443.944641 611.029053,441.318359 611.029053,438.404419 
	C612.729675,438.294739 614.012024,438.126801 615.292114,438.142242 
	C634.590088,438.375031 654.090271,436.943909 673.143738,439.230316 
	C714.318237,444.171326 723.806885,486.587830 706.575500,512.649109 
	C697.364563,526.580078 682.902710,532.058960 666.576355,532.568848 
	C657.601868,532.849182 648.611389,532.619141 639.002197,532.619141 
	C639.002197,551.075256 639.002197,569.279297 639.002197,587.769043 
	C629.472473,587.769043 620.565918,587.769043 611.031982,587.769043 
	C611.031982,540.994507 611.031982,494.273621 611.030518,447.061829 
M674.322327,465.960052 
	C662.697083,465.042908 651.071899,464.125793 639.286072,463.196014 
	C639.286072,478.597473 639.286072,492.594604 639.286072,506.978882 
	C642.987854,506.978882 646.288513,506.989471 649.589050,506.976471 
	C655.239136,506.954254 660.916565,507.260162 666.533386,506.812317 
	C676.969849,505.980133 684.728821,499.149506 686.652161,489.691101 
	C688.681519,479.711060 684.490662,471.212250 674.322327,465.960052 
z"/>
<path fill="#FBFBFB" opacity="1.000000" stroke="none" 
	d="
M1366.869507,491.556610 
	C1364.150879,516.785461 1342.243164,532.196045 1319.057251,532.076843 
	C1310.268188,532.031677 1301.478638,532.069458 1292.170654,532.069458 
	C1292.170654,549.343628 1292.170654,566.084473 1292.170654,583.123779 
	C1282.896606,583.123779 1274.145752,583.123779 1265.077515,583.123779 
	C1265.077515,535.037720 1265.077515,486.950989 1265.077515,438.455353 
	C1266.471313,438.381805 1267.913696,438.232513 1269.355225,438.240692 
	C1287.843872,438.345276 1306.470703,437.086365 1324.789185,438.913239 
	C1353.416992,441.768250 1369.236816,462.501648 1366.869507,491.556610 
M1331.598633,502.195892 
	C1339.206665,495.920929 1341.707764,487.955566 1338.900146,478.573792 
	C1336.411133,470.256897 1330.477539,465.107544 1321.953247,464.491333 
	C1312.240601,463.789246 1302.438110,464.328918 1292.529297,464.328918 
	C1292.529297,478.656799 1292.529297,492.683868 1292.529297,506.874237 
	C1300.575562,506.874237 1308.276001,507.389343 1315.865723,506.694641 
	C1320.996826,506.224976 1325.972168,504.051788 1331.598633,502.195892 
z"/>
<path fill="#F8F8F8" opacity="1.000000" stroke="none" 
	d="
M911.544800,554.000305 
	C911.544250,565.472778 911.544250,576.445129 911.544250,587.743652 
	C902.273804,587.743652 893.391418,587.743652 884.171204,587.743652 
	C884.171204,538.030945 884.171204,488.356995 884.171204,438.430969 
	C915.451233,438.430969 946.501648,438.430969 977.823242,438.430969 
	C977.823242,447.142426 977.823242,455.563141 977.823242,464.415039 
	C955.924622,464.415039 934.151184,464.415039 911.947021,464.415039 
	C911.947021,477.720215 911.947021,490.605835 911.947021,504.015259 
	C931.421936,504.015259 950.982483,504.015259 970.820435,504.015259 
	C970.820435,512.781799 970.820435,521.032104 970.820435,529.975830 
	C951.204163,529.975830 931.664612,529.975830 911.545410,529.975830 
	C911.545410,538.271301 911.545410,545.885803 911.544800,554.000305 
z"/>
<path fill="#F9F9F9" opacity="1.000000" stroke="none" 
	d="
M1196.178223,498.844971 
	C1215.652466,523.644226 1211.647339,557.651794 1187.365845,575.838501 
	C1170.676636,588.338440 1143.294678,589.006165 1125.634644,577.343933 
	C1107.209595,565.176453 1098.299805,542.340637 1103.504150,520.623169 
	C1108.685181,499.002350 1126.058105,483.682587 1148.376465,480.967316 
	C1167.273560,478.668274 1183.070435,484.659180 1196.178223,498.844971 
M1129.077393,525.777344 
	C1126.911865,537.371521 1129.245117,547.770630 1138.258911,555.749634 
	C1146.346436,562.908691 1155.968018,564.176819 1165.820068,560.042114 
	C1176.813477,555.428406 1181.664062,546.253784 1182.305542,534.749573 
	C1183.132812,519.916199 1174.865479,508.159241 1161.709595,505.021149 
	C1146.957397,501.502350 1135.181885,508.738922 1129.077393,525.777344 
z"/>
<path fill="#F9F9F9" opacity="1.000000" stroke="none" 
	d="
M1498.732910,483.988586 
	C1506.930420,483.564819 1515.128052,483.141052 1523.741455,482.695770 
	C1523.741455,487.887482 1523.741455,492.307434 1523.741455,497.918213 
	C1525.285645,496.237183 1526.131592,495.438141 1526.837036,494.529938 
	C1536.954956,481.504608 1550.497803,478.607452 1565.751343,481.933136 
	C1580.754639,485.204224 1589.029541,495.293121 1591.969727,509.993195 
	C1592.713989,513.714050 1593.051270,517.574219 1593.069458,521.372803 
	C1593.161255,540.534668 1593.085815,559.697388 1593.069092,578.859802 
	C1593.067993,580.155945 1593.068848,581.452026 1593.068848,583.044556 
	C1584.394897,583.044556 1576.145264,583.044556 1567.294922,583.044556 
	C1567.294922,580.962097 1567.297974,579.009094 1567.294434,577.056091 
	C1567.262817,559.726624 1567.340332,542.396057 1567.160278,525.068115 
	C1567.034180,512.930054 1561.180542,505.565704 1551.175537,504.349243 
	C1540.927612,503.103302 1530.482422,509.469513 1527.372681,519.433105 
	C1526.003052,523.820984 1525.170898,528.548218 1525.096680,533.137634 
	C1524.830444,549.606140 1524.992310,566.081665 1524.992310,583.218506 
	C1516.388672,583.218506 1508.143188,583.218506 1499.439941,582.644043 
	C1498.899048,549.375916 1498.815918,516.682251 1498.732910,483.988586 
z"/>
<path fill="#D3D3D4" opacity="1.000000" stroke="none" 
	d="
M502.265137,333.522827 
	C474.691406,333.968903 447.237305,333.977448 419.783234,333.975098 
	C408.276764,333.974091 402.984222,328.738617 402.984222,317.368225 
	C402.984222,290.579742 402.991852,263.791260 402.991333,236.539001 
	C409.971161,234.793976 415.341583,236.644775 420.635345,242.017410 
	C446.682037,268.451874 473.124176,294.498840 499.607422,320.498535 
	C503.570190,324.388947 501.916260,328.801514 502.265137,333.522827 
z"/>
<path fill="#F9F9F9" opacity="1.000000" stroke="none" 
	d="
M1644.811035,518.014282 
	C1644.784180,527.504150 1644.687500,536.497620 1644.748047,545.490051 
	C1644.839111,559.017761 1651.297974,563.749268 1664.430298,560.030334 
	C1665.190430,559.815125 1665.957886,559.625549 1666.898315,559.377563 
	C1667.260986,560.103943 1667.678101,560.640625 1667.804688,561.238770 
	C1669.176025,567.717957 1670.501587,574.206848 1671.921509,581.089294 
	C1658.105469,586.235657 1644.658936,587.435730 1631.879272,579.607361 
	C1622.610718,573.929749 1618.977417,564.665222 1618.890137,554.066223 
	C1618.760132,538.275452 1618.856567,522.482727 1618.856567,506.175842 
	C1612.709717,506.175842 1606.967407,506.175842 1600.877686,506.175842 
	C1600.877686,498.260406 1600.877686,490.860718 1600.877686,483.156616 
	C1606.783569,483.156616 1612.419189,483.156616 1618.651367,483.156616 
	C1618.651367,473.505859 1618.651367,464.137451 1618.651367,454.481689 
	C1627.506592,454.481689 1635.766113,454.481689 1644.476318,454.481689 
	C1644.476318,463.808319 1644.476318,473.057037 1644.476318,482.909607 
	C1653.105347,482.909607 1661.321167,482.909607 1669.835938,482.909607 
	C1669.835938,490.753448 1669.835938,497.996277 1669.835938,505.778381 
	C1661.735962,505.778381 1653.661743,505.778381 1644.811646,505.778381 
	C1644.811646,510.034821 1644.811646,513.776123 1644.811035,518.014282 
z"/>
<path fill="#FAFAFA" opacity="1.000000" stroke="none" 
	d="
M1042.737305,483.075012 
	C1043.778198,481.740601 1044.807129,480.423462 1044.832153,479.087494 
	C1044.984375,470.964478 1044.907959,462.837158 1044.907959,454.451111 
	C1053.733032,454.451111 1062.122803,454.451111 1070.883301,454.451111 
	C1070.883301,463.988770 1070.883301,473.249817 1070.883301,482.963715 
	C1079.309692,482.963715 1087.384644,482.963715 1095.797729,482.963715 
	C1095.797729,490.783478 1095.797729,498.150696 1095.797729,506.066010 
	C1087.590576,506.066010 1079.513550,506.066010 1071.071411,506.066010 
	C1071.071411,521.546082 1070.798462,536.493347 1071.201050,551.422302 
	C1071.370605,557.706970 1077.007446,561.543640 1084.065430,561.110901 
	C1087.006470,560.930542 1089.908569,560.113770 1093.381592,559.486511 
	C1094.839233,566.601929 1096.283447,573.651245 1097.707764,580.604065 
	C1078.852539,591.609192 1052.722900,583.516052 1046.702881,564.879761 
	C1045.548584,561.306335 1045.027222,557.388855 1044.982300,553.620911 
	C1044.795898,537.991150 1044.904053,522.357910 1044.904053,506.171814 
	C1039.004150,506.171814 1033.443970,506.171814 1027.551025,506.171814 
	C1027.551025,498.373352 1027.551025,491.121399 1027.551025,483.083618 
	C1032.421021,483.083618 1037.341187,483.083618 1042.737305,483.075012 
z"/>
<path fill="#F6F6F6" opacity="1.000000" stroke="none" 
	d="
M620.074463,370.887207 
	C617.277405,370.887878 614.968872,370.887878 612.261414,370.887878 
	C612.261414,337.240448 612.261414,303.901276 612.261414,270.218933 
	C613.476990,270.110382 614.748169,269.874908 616.013550,269.902588 
	C630.132751,270.211395 644.452454,269.173767 658.327393,271.189209 
	C686.885620,275.337585 700.046814,301.305359 697.414124,325.695312 
	C694.235779,355.141022 675.826416,370.888885 646.028381,370.891449 
	C637.539917,370.892181 629.051453,370.888275 620.074463,370.887207 
M649.125122,282.260193 
	C641.350891,282.260193 633.576660,282.260193 625.577148,282.260193 
	C625.577148,307.930023 625.577148,332.960449 625.577148,357.734161 
	C635.807495,357.734161 645.790222,358.416168 655.631958,357.530548 
	C664.393372,356.742126 671.428406,351.758118 676.670837,344.509003 
	C694.675110,319.612976 680.351135,286.104034 649.125122,282.260193 
z"/>
<path fill="#F8F8F8" opacity="1.000000" stroke="none" 
	d="
M1424.442139,481.062744 
	C1431.763794,480.300140 1438.456787,480.727997 1445.108032,484.218536 
	C1443.406006,491.931122 1441.730957,499.520996 1440.060303,507.091431 
	C1435.246704,506.447571 1430.702393,505.409882 1426.138794,505.318207 
	C1416.479370,505.124237 1408.530762,510.453888 1405.371338,519.572571 
	C1403.715454,524.351746 1402.640991,529.553589 1402.506592,534.596619 
	C1402.120239,549.083069 1402.346680,563.585754 1402.332764,578.082092 
	C1402.331177,579.700500 1402.332520,581.318909 1402.332520,583.171936 
	C1393.546509,583.171936 1385.267822,583.171936 1376.609131,583.171936 
	C1376.609131,550.043518 1376.609131,516.997437 1376.609131,483.534851 
	C1384.393555,483.534851 1392.287109,483.534851 1400.687256,483.534851 
	C1400.687256,488.116791 1400.687256,492.841309 1400.687256,497.565796 
	C1406.582642,489.023132 1413.700562,482.873962 1424.442139,481.062744 
z"/>
<path fill="#F4F4F4" opacity="1.000000" stroke="none" 
	d="
M1240.986816,340.000000 
	C1240.985596,350.450409 1240.985596,360.400818 1240.985596,370.617310 
	C1236.623535,370.617310 1232.703613,370.617310 1228.250000,370.617310 
	C1228.250000,367.508331 1228.250000,364.466797 1228.250000,362.280945 
	C1222.792603,365.475647 1217.743408,369.843475 1211.911133,371.578430 
	C1194.999146,376.609192 1177.966064,365.903839 1172.825073,347.978668 
	C1167.895752,330.791168 1173.826294,313.057159 1187.294434,304.711578 
	C1200.472412,296.545868 1215.035767,298.375305 1225.889526,309.554688 
	C1226.308105,309.985870 1226.767334,310.377625 1227.836792,311.373901 
	C1227.836792,297.239471 1227.836792,283.869141 1227.836792,270.176575 
	C1232.344971,270.176575 1236.409058,270.176575 1240.988037,270.176575 
	C1240.988037,293.311340 1240.988037,316.405670 1240.986816,340.000000 
M1208.244995,311.878723 
	C1195.139282,311.768311 1187.041504,318.599915 1184.863037,331.604736 
	C1182.292603,346.950134 1191.582153,360.191345 1205.337891,360.789490 
	C1216.919800,361.293060 1226.509644,352.776550 1228.008911,340.656158 
	C1229.880127,325.528198 1222.638184,314.529572 1208.244995,311.878723 
z"/>
<path fill="#F3F3F3" opacity="1.000000" stroke="none" 
	d="
M887.708435,312.869873 
	C881.864502,330.170074 875.769287,347.391968 870.337524,364.820648 
	C868.809937,369.722137 866.812500,371.786469 861.772034,370.941193 
	C859.845886,370.618195 857.820312,370.888672 855.716919,370.888672 
	C850.282104,353.731750 844.937134,336.858307 839.592163,319.984863 
	C839.198120,319.993652 838.804077,320.002441 838.410034,320.011230 
	C834.247559,332.437378 830.084106,344.863190 825.924805,357.290344 
	C825.607849,358.237213 825.322693,359.194672 825.019287,360.146149 
	C821.434265,371.388794 821.434143,371.388733 809.188721,370.666779 
	C801.895081,348.038971 794.572998,325.323029 787.133118,302.241547 
	C791.541077,302.241547 795.770386,302.241547 800.593323,302.241547 
	C805.472229,318.930573 810.420898,335.858032 815.738342,354.047150 
	C821.492493,336.026276 826.876343,319.165161 832.221802,302.424316 
	C833.015808,302.229889 833.491882,302.024261 833.974182,302.008331 
	C844.991028,301.644379 844.904480,301.676239 848.293030,312.187897 
	C852.602295,325.555786 857.069702,338.872711 861.911499,353.553619 
	C867.256714,335.688965 872.231934,319.060699 877.255981,302.269409 
	C881.809143,302.269409 886.259521,302.269409 890.842773,302.269409 
	C890.215576,304.633270 889.628845,306.844696 888.794678,309.652710 
	C888.267761,311.122803 887.988098,311.996338 887.708435,312.869873 
z"/>
<path fill="#F6F6F6" opacity="1.000000" stroke="none" 
	d="
M1480.502808,582.824890 
	C1472.049438,582.824890 1463.596069,582.824890 1454.719482,582.824890 
	C1454.719482,550.012451 1454.719482,516.848938 1454.719482,483.599609 
	C1463.218994,483.599609 1471.611938,483.599609 1480.193604,484.292175 
	C1480.450439,487.268005 1480.518433,489.551331 1480.448242,492.122559 
	C1480.401245,493.667114 1480.492188,494.923737 1480.445801,496.619873 
	C1480.373169,525.647888 1480.437988,554.236389 1480.502808,582.824890 
z"/>
<path fill="#F4F3F3" opacity="1.000000" stroke="none" 
	d="
M1130.525146,327.574036 
	C1135.008911,328.364563 1139.044434,329.096161 1143.069702,329.825928 
	C1144.489502,322.030060 1141.242798,315.989288 1134.335083,313.175201 
	C1124.411621,309.132538 1115.462524,311.844116 1108.737549,321.281433 
	C1105.317993,319.626953 1101.815186,317.932098 1097.977661,316.075317 
	C1099.052734,314.239502 1099.764526,312.785583 1100.689209,311.482819 
	C1107.935547,301.273987 1123.433716,296.998596 1137.300659,301.338074 
	C1149.604980,305.188568 1156.275146,314.796570 1156.274292,328.665283 
	C1156.273438,342.471191 1156.274048,356.277130 1156.274048,370.485901 
	C1152.140015,370.485901 1148.255493,370.485901 1143.859131,370.485901 
	C1143.675659,367.759338 1143.483154,364.896942 1143.235596,361.216217 
	C1134.263916,373.058197 1123.094849,375.008453 1110.407349,370.784821 
	C1101.513184,367.824036 1095.652344,359.856598 1095.445557,351.006226 
	C1095.220947,341.391205 1100.081177,333.204102 1109.506348,330.320221 
	C1116.037842,328.321747 1123.197632,328.377350 1130.525146,327.574036 
M1114.352661,359.332123 
	C1127.208374,366.750153 1145.421753,354.958862 1143.113159,339.827576 
	C1134.983887,337.578796 1126.665405,336.392609 1118.217651,338.430725 
	C1113.603394,339.543945 1109.997681,342.182343 1109.080811,347.238708 
	C1108.211914,352.030396 1109.331055,356.161194 1114.352661,359.332123 
z"/>
<path fill="#F4F4F4" opacity="1.000000" stroke="none" 
	d="
M1027.965942,367.101990 
	C1015.365051,358.156494 1010.483032,346.183777 1012.400513,331.370239 
	C1014.342773,316.365112 1022.747559,306.344849 1036.865723,301.454803 
	C1056.375977,294.697083 1077.023682,306.183319 1082.444702,326.416809 
	C1088.024414,347.242554 1075.846313,367.824615 1055.592163,371.939056 
	C1045.854248,373.917206 1036.804321,372.230621 1027.965942,367.101990 
M1041.034424,359.730103 
	C1044.646484,359.954926 1048.393799,360.906311 1051.844727,360.264526 
	C1061.169678,358.530243 1067.296509,352.810028 1069.531494,343.462860 
	C1071.887695,333.610077 1070.464600,324.597626 1062.705322,317.346802 
	C1054.258911,309.453949 1039.853027,309.970154 1031.983154,318.392181 
	C1022.328674,328.723724 1022.260620,353.081573 1041.034424,359.730103 
z"/>
<path fill="#F4F4F4" opacity="1.000000" stroke="none" 
	d="
M715.297546,356.649536 
	C704.358215,337.131622 710.413147,313.521729 728.529663,303.910614 
	C742.376709,296.564545 760.671021,299.168335 771.055481,309.963257 
	C782.607727,321.972137 784.803345,341.283020 776.255676,355.700043 
	C768.051514,369.537720 751.838501,375.795715 735.657776,371.487213 
	C727.055786,369.196716 720.391602,364.336365 715.297546,356.649536 
M742.153259,360.655029 
	C754.808472,361.617126 763.842102,355.545807 767.451050,343.652832 
	C772.125854,328.247650 762.162354,312.523285 747.246338,311.765930 
	C734.486206,311.118073 725.489197,318.669220 723.506470,332.280701 
	C721.714905,344.579895 727.444946,357.432617 742.153259,360.655029 
z"/>
<path fill="#F0F0F0" opacity="1.000000" stroke="none" 
	d="
M902.366760,302.141846 
	C906.502991,302.141846 910.639221,302.141846 915.067932,302.141846 
	C915.235107,305.072235 915.401367,307.987274 915.613159,311.700226 
	C921.967224,304.199463 929.050476,299.686798 938.643494,299.780884 
	C953.027710,299.921967 963.043213,307.655945 963.903809,321.946381 
	C964.871582,338.015442 964.126343,354.187653 964.126343,370.608582 
	C959.895508,370.608582 955.826660,370.608582 951.360962,370.608582 
	C951.260376,369.105774 951.086365,367.669189 951.080261,366.231903 
	C951.028198,354.070007 951.014465,341.907959 950.973999,329.746002 
	C950.937805,318.860016 946.828796,313.177704 938.142761,311.961670 
	C928.385010,310.595581 919.143250,316.515106 916.780334,325.962769 
	C915.982361,329.153259 915.702393,332.539703 915.664795,335.842041 
	C915.534424,347.309875 915.614441,358.780151 915.614441,370.873779 
	C911.297302,370.873779 907.371765,370.873779 902.936829,370.382080 
	C902.407227,347.307526 902.386963,324.724670 902.366760,302.141846 
z"/>
<path fill="#F6F6F6" opacity="1.000000" stroke="none" 
	d="
M996.927246,301.000122 
	C996.931946,324.424896 996.931946,347.349701 996.931946,370.578064 
	C992.403748,370.578064 988.348328,370.578064 983.972168,370.578064 
	C983.972168,337.093292 983.972168,303.734772 983.972168,270.112366 
	C988.185669,270.112366 992.249084,270.112366 996.922546,270.112366 
	C996.922546,280.311981 996.922546,290.406036 996.927246,301.000122 
z"/>
<path fill="#F6F6F6" opacity="1.000000" stroke="none" 
	d="
M1460.912964,438.640137 
	C1471.651978,435.472809 1480.339844,439.419891 1483.022827,448.330109 
	C1485.362183,456.099426 1481.181763,464.484924 1473.536743,467.358276 
	C1465.464722,470.392120 1456.610596,467.166077 1453.000732,459.875977 
	C1449.146118,452.091583 1452.195923,443.626526 1460.912964,438.640137 
z"/>
<path fill="#090908" opacity="1.000000" stroke="none" 
	d="
M1498.324341,483.987549 
	C1498.815918,516.682251 1498.899048,549.375916 1498.979736,582.538757 
	C1492.148926,582.839661 1492.386108,582.857239 1492.891235,576.038879 
	C1493.283813,570.740173 1492.997559,565.390503 1492.998535,560.063477 
	C1493.002319,540.419434 1493.051636,520.775208 1492.955078,501.131653 
	C1492.936523,497.344238 1492.130371,493.563232 1492.064819,489.772736 
	C1492.000244,486.045685 1493.255981,483.168732 1498.324341,483.987549 
z"/>
<path fill="#090908" opacity="1.000000" stroke="none" 
	d="
M1480.586426,491.834625 
	C1480.518433,489.551331 1480.450439,487.268005 1480.486938,484.567230 
	C1486.021606,484.178741 1487.173340,485.516571 1486.346680,490.538452 
	C1486.052368,492.327484 1486.015381,494.173645 1486.013794,495.993835 
	C1485.993530,520.976013 1485.993774,545.958191 1486.012817,570.940369 
	C1486.014282,572.761597 1486.013428,574.616211 1486.333862,576.397583 
	C1487.250366,581.493103 1486.612305,582.407227 1480.928467,582.869995 
	C1480.437988,554.236389 1480.373169,525.647888 1480.775146,496.409912 
	C1481.023315,494.451874 1480.804810,493.143250 1480.586426,491.834625 
z"/>
<path fill="#090908" opacity="1.000000" stroke="none" 
	d="
M901.908936,302.103333 
	C902.386963,324.724670 902.407227,347.307526 902.511963,370.338135 
	C898.482178,371.632690 896.884155,370.068604 896.933655,365.780701 
	C897.103210,351.103943 897.145752,336.421906 896.930420,321.746338 
	C896.838745,315.497223 895.989502,309.259216 895.407532,302.064819 
	C897.378601,302.064819 899.414856,302.064819 901.908936,302.103333 
z"/>
<path fill="#090908" opacity="1.000000" stroke="none" 
	d="
M888.023560,313.060089 
	C887.988098,311.996338 888.267761,311.122803 888.766235,310.082428 
	C890.278320,310.526672 891.651062,311.027527 892.791382,311.850525 
	C892.996277,311.998383 892.195496,314.225281 891.939636,314.209229 
	C890.723938,314.132904 889.536316,313.612518 888.023560,313.060089 
z"/>
<path fill="#D93A35" opacity="1.000000" stroke="none" 
	d="
M345.171997,467.984375 
	C341.447235,458.693146 339.568726,449.453888 340.074615,439.826385 
	C340.635345,429.154846 347.317993,423.753540 355.898743,427.203156 
	C361.954010,429.637421 364.167389,435.157715 363.853729,441.016174 
	C363.394745,449.589691 363.161926,458.542023 360.463074,466.532562 
	C357.350739,475.747406 359.014923,483.028137 364.436859,490.137299 
	C368.871796,495.952393 373.670685,501.488922 378.149414,507.271942 
	C380.286194,510.030975 382.839233,510.129852 386.038177,509.958710 
	C395.624268,509.445770 405.245514,509.002228 414.827972,509.310455 
	C418.440063,509.426636 422.172424,511.314270 425.508820,513.050049 
	C429.389557,515.068970 431.062225,518.817871 430.460175,523.161926 
	C429.831665,527.696960 427.153778,530.668152 422.604340,531.827271 
	C414.872894,533.797119 407.210297,533.012451 400.155457,529.775146 
	C393.715302,526.819885 387.867126,522.594910 381.640472,519.141541 
	C379.787689,518.114014 377.334625,516.898254 375.503174,517.310059 
	C363.996399,519.897400 352.603577,522.986511 341.137482,525.762695 
	C337.065643,526.748596 334.922058,529.436890 332.800446,532.830505 
	C327.520844,541.275513 322.031067,549.616760 316.132385,557.636780 
	C312.568939,562.481812 307.943939,566.626404 301.528717,567.258423 
	C298.324829,567.574036 294.825958,567.514221 291.805817,566.546448 
	C284.920837,564.340393 282.663177,557.544922 286.294891,551.259155 
	C291.834290,541.671509 301.226105,536.832886 310.452179,531.810791 
	C311.766449,531.095337 313.087585,530.225525 314.512665,529.908203 
	C322.449677,528.140808 326.523895,522.620483 329.569366,515.578247 
	C334.521729,504.126587 339.749847,492.786255 345.180450,481.553101 
	C347.387848,476.987061 347.899658,472.786774 345.171997,467.984375 
M342.246094,519.467041 
	C352.263824,516.824341 362.281525,514.181702 372.566010,511.468719 
	C366.524078,503.675629 360.699921,496.163422 354.584717,488.275818 
	C349.870605,498.641663 345.299988,508.692017 340.374084,519.049622 
	C340.741394,519.221252 341.108734,519.392944 342.246094,519.467041 
M291.906158,561.369263 
	C293.682098,561.157532 295.745605,561.459534 297.188019,560.652039 
	C307.864899,554.674988 313.826874,544.781616 318.952332,534.172485 
	C308.649261,537.795105 299.674347,543.270508 292.509705,551.305847 
	C290.133240,553.971191 287.906860,557.294312 291.906158,561.369263 
M408.167145,514.022095 
	C401.475403,514.205383 394.783661,514.388672 388.091919,514.571960 
	C388.039551,515.073608 387.987183,515.575195 387.934814,516.076843 
	C395.076324,522.161316 403.084869,526.597900 412.791229,526.435364 
	C415.035339,526.397766 418.537354,524.076416 419.066772,522.148621 
	C419.538086,520.432373 417.084686,517.350891 415.188782,515.729309 
	C413.744507,514.493958 411.151764,514.601318 408.167145,514.022095 
M349.390350,459.855286 
	C349.940674,461.220032 350.490967,462.584808 351.522461,465.142792 
	C352.859650,460.729584 353.862335,457.764832 354.645569,454.743164 
	C355.514984,451.388824 356.676331,448.000519 356.800903,444.593750 
	C356.923706,441.235199 356.536407,437.566071 355.232513,434.521637 
	C353.623444,430.764832 349.985992,430.991943 348.164185,434.716492 
	C347.326599,436.428925 346.831207,438.577148 346.990021,440.459442 
	C347.515350,446.685364 348.409332,452.880188 349.390350,459.855286 
z"/>
<path fill="#DC4B46" opacity="1.000000" stroke="none" 
	d="
M357.539581,393.730164 
	C356.565308,390.640900 355.210754,387.203705 355.133057,383.737854 
	C354.860077,371.567963 354.975555,359.387939 355.040588,347.212280 
	C355.103424,335.447418 355.278137,323.683105 355.464294,311.919495 
	C355.468750,311.637970 356.189667,311.367767 356.935181,311.021118 
	C357.454559,311.746277 357.755188,312.542572 357.755615,313.338989 
	C357.769745,340.015686 357.755157,366.692352 357.539581,393.730164 
z"/>
<path fill="#FBF0EF" opacity="1.000000" stroke="none" 
	d="
M271.742859,374.813171 
	C266.157959,374.816132 261.040710,374.816132 255.581680,374.816132 
	C255.581680,360.206879 255.581680,346.138092 255.581680,330.602875 
	C264.123138,331.382080 272.678162,331.171539 280.689606,333.155670 
	C289.773834,335.405487 295.253998,346.716095 293.569946,356.443939 
	C291.576202,367.960510 284.166351,374.332001 271.742859,374.813171 
M272.868561,339.321411 
	C270.136230,339.321411 267.403900,339.321411 264.691803,339.321411 
	C264.691803,348.874786 264.691803,357.734985 264.691803,366.550323 
	C277.299744,367.773407 282.786438,364.667603 284.436859,355.631561 
	C285.937897,347.413422 282.179321,341.761963 272.868561,339.321411 
z"/>
<path fill="#FBF0EF" opacity="1.000000" stroke="none" 
	d="
M216.343063,341.076843 
	C216.338882,337.776123 216.338882,334.963531 216.338882,330.802307 
	C224.352264,331.374237 232.169952,331.190308 239.650909,332.688171 
	C246.278763,334.015228 249.728165,340.709778 248.878174,347.379700 
	C247.994141,354.316589 242.874786,359.037354 235.281799,359.636627 
	C232.180191,359.881409 229.043137,359.677094 225.774597,359.677094 
	C225.584045,362.646576 225.378662,364.947845 225.304642,367.253387 
	C225.230759,369.554321 225.288467,371.859497 225.288467,374.463379 
	C222.203369,374.463379 219.629700,374.463379 216.347244,374.463379 
	C216.347244,363.428375 216.347244,352.496643 216.343063,341.076843 
M238.343536,341.153412 
	C234.221619,340.205200 230.099701,339.256958 225.551208,338.210602 
	C225.551208,343.610443 225.551208,347.505493 225.551208,351.931793 
	C227.925140,351.931793 230.032761,351.960114 232.139374,351.926544 
	C238.765472,351.820953 241.177399,348.156158 238.343536,341.153412 
z"/>
<path fill="#FBF0EF" opacity="1.000000" stroke="none" 
	d="
M324.574219,357.687775 
	C319.619415,357.731262 315.127808,357.731262 310.063721,357.731262 
	C310.063721,363.290039 310.063721,368.684357 310.063721,374.414612 
	C306.782928,374.414612 304.067200,374.414612 300.901245,374.414612 
	C300.901245,360.233459 300.901245,346.167389 300.901245,331.689819 
	C309.715118,331.689819 318.614929,331.689819 328.183167,331.689819 
	C328.280273,333.801605 328.382263,336.020386 328.516357,338.936768 
	C322.307587,338.936768 316.427704,338.936768 310.235657,338.936768 
	C310.235657,342.821625 310.235657,346.061920 310.235657,349.843445 
	C315.235046,349.843445 320.310577,349.843445 326.469513,349.843445 
	C325.911011,352.885712 325.474243,355.265015 324.574219,357.687775 
z"/>
<path fill="#020201" opacity="1.000000" stroke="none" 
	d="
M801.977234,466.079742 
	C818.392944,469.585907 829.005737,479.703308 834.393311,495.282806 
	C840.716309,513.567444 837.457947,537.926392 820.974365,551.476685 
	C811.821899,559.000488 801.291321,562.347473 789.619812,562.489380 
	C780.968323,562.594543 772.314880,562.545959 763.296387,561.946533 
	C762.930359,529.795898 762.930359,498.264587 762.930359,466.422974 
	C761.086060,466.227356 759.647339,466.074738 758.208618,465.922150 
	C758.208618,465.922150 757.970520,465.862671 758.002808,465.643127 
	C758.107483,464.981750 758.179871,464.539948 758.252258,464.098114 
	C771.896301,464.456635 785.540405,464.815155 799.619751,465.614014 
	C800.695801,466.062836 801.336548,466.071289 801.977234,466.079742 
z"/>
<path fill="#131313" opacity="1.000000" stroke="none" 
	d="
M758.102783,466.385315 
	C759.647339,466.074738 761.086060,466.227356 762.930359,466.422974 
	C762.930359,498.264587 762.930359,529.795898 762.901978,561.814819 
	C761.435425,562.428406 759.997253,562.554321 757.996948,562.729431 
	C757.996948,530.487610 757.996948,498.668030 758.102783,466.385315 
z"/>
<path fill="#F6F6F6" opacity="1.000000" stroke="none" 
	d="
M757.836304,464.070618 
	C758.179871,464.539948 758.107483,464.981750 757.931580,465.743042 
	C757.218628,467.719543 756.084473,469.374603 756.078125,471.033997 
	C755.969421,499.487091 756.010254,527.940735 755.976196,556.394226 
	C755.973999,558.212219 755.629028,560.029785 755.443542,561.847595 
	C754.867065,561.904968 754.290527,561.962402 753.713989,562.019836 
	C753.144287,559.634888 752.079773,557.248596 752.086670,554.865356 
	C752.125549,541.414612 752.489563,527.965149 752.591492,514.514099 
	C752.625244,510.053589 752.067139,505.590881 752.028687,501.127045 
	C751.939087,490.722565 752.057312,480.316345 751.971313,469.911804 
	C751.939697,466.086975 753.202576,463.772461 757.836304,464.070618 
z"/>
<path fill="#131313" opacity="1.000000" stroke="none" 
	d="
M801.776855,465.887207 
	C801.336548,466.071289 800.695801,466.062836 800.005737,465.802765 
	C800.496399,465.598969 801.036499,465.646790 801.776855,465.887207 
z"/>
<path fill="#060505" opacity="1.000000" stroke="none" 
	d="
M674.692627,466.074524 
	C684.490662,471.212250 688.681519,479.711060 686.652161,489.691101 
	C684.728821,499.149506 676.969849,505.980133 666.533386,506.812317 
	C660.916565,507.260162 655.239136,506.954254 649.589050,506.976471 
	C646.288513,506.989471 642.987854,506.978882 639.286072,506.978882 
	C639.286072,492.594604 639.286072,478.597473 639.286072,463.196014 
	C651.071899,464.125793 662.697083,465.042908 674.692627,466.074524 
z"/>
<path fill="#070606" opacity="1.000000" stroke="none" 
	d="
M1331.307861,502.418213 
	C1325.972168,504.051788 1320.996826,506.224976 1315.865723,506.694641 
	C1308.276001,507.389343 1300.575562,506.874237 1292.529297,506.874237 
	C1292.529297,492.683868 1292.529297,478.656799 1292.529297,464.328918 
	C1302.438110,464.328918 1312.240601,463.789246 1321.953247,464.491333 
	C1330.477539,465.107544 1336.411133,470.256897 1338.900146,478.573792 
	C1341.707764,487.955566 1339.206665,495.920929 1331.307861,502.418213 
z"/>
<path fill="#050505" opacity="1.000000" stroke="none" 
	d="
M1129.158447,525.376465 
	C1135.181885,508.738922 1146.957397,501.502350 1161.709595,505.021149 
	C1174.865479,508.159241 1183.132812,519.916199 1182.305542,534.749573 
	C1181.664062,546.253784 1176.813477,555.428406 1165.820068,560.042114 
	C1155.968018,564.176819 1146.346436,562.908691 1138.258911,555.749634 
	C1129.245117,547.770630 1126.911865,537.371521 1129.158447,525.376465 
z"/>
<path fill="#060505" opacity="1.000000" stroke="none" 
	d="
M649.584106,282.261749 
	C680.351135,286.104034 694.675110,319.612976 676.670837,344.509003 
	C671.428406,351.758118 664.393372,356.742126 655.631958,357.530548 
	C645.790222,358.416168 635.807495,357.734161 625.577148,357.734161 
	C625.577148,332.960449 625.577148,307.930023 625.577148,282.260193 
	C633.576660,282.260193 641.350891,282.260193 649.584106,282.261749 
z"/>
<path fill="#060505" opacity="1.000000" stroke="none" 
	d="
M1208.679199,311.918640 
	C1222.638184,314.529572 1229.880127,325.528198 1228.008911,340.656158 
	C1226.509644,352.776550 1216.919800,361.293060 1205.337891,360.789490 
	C1191.582153,360.191345 1182.292603,346.950134 1184.863037,331.604736 
	C1187.041504,318.599915 1195.139282,311.768311 1208.679199,311.918640 
z"/>
<path fill="#010101" opacity="1.000000" stroke="none" 
	d="
M1480.448364,492.122559 
	C1480.804810,493.143250 1481.023315,494.451874 1480.912476,495.970428 
	C1480.492188,494.923737 1480.401245,493.667114 1480.448364,492.122559 
z"/>
<path fill="#090908" opacity="1.000000" stroke="none" 
	d="
M1114.022705,359.142639 
	C1109.331055,356.161194 1108.211914,352.030396 1109.080811,347.238708 
	C1109.997681,342.182343 1113.603394,339.543945 1118.217651,338.430725 
	C1126.665405,336.392609 1134.983887,337.578796 1143.113159,339.827576 
	C1145.421753,354.958862 1127.208374,366.750153 1114.022705,359.142639 
z"/>
<path fill="#050505" opacity="1.000000" stroke="none" 
	d="
M1040.657471,359.610962 
	C1022.260620,353.081573 1022.328674,328.723724 1031.983154,318.392181 
	C1039.853027,309.970154 1054.258911,309.453949 1062.705322,317.346802 
	C1070.464600,324.597626 1071.887695,333.610077 1069.531494,343.462860 
	C1067.296509,352.810028 1061.169678,358.530243 1051.844727,360.264526 
	C1048.393799,360.906311 1044.646484,359.954926 1040.657471,359.610962 
z"/>
<path fill="#060505" opacity="1.000000" stroke="none" 
	d="
M741.754395,360.543091 
	C727.444946,357.432617 721.714905,344.579895 723.506470,332.280701 
	C725.489197,318.669220 734.486206,311.118073 747.246338,311.765930 
	C762.162354,312.523285 772.125854,328.247650 767.451050,343.652832 
	C763.842102,355.545807 754.808472,361.617126 741.754395,360.543091 
z"/>
<path fill="#F2EDEC" opacity="1.000000" stroke="none" 
	d="
M340.729370,518.742371 
	C345.299988,508.692017 349.870605,498.641663 354.584717,488.275818 
	C360.699921,496.163422 366.524078,503.675629 372.566010,511.468719 
	C362.281525,514.181702 352.263824,516.824341 341.682220,519.303162 
	C340.988678,519.006958 340.859039,518.874634 340.729370,518.742371 
z"/>
<path fill="#F2EDEC" opacity="1.000000" stroke="none" 
	d="
M291.551331,561.197388 
	C287.906860,557.294312 290.133240,553.971191 292.509705,551.305847 
	C299.674347,543.270508 308.649261,537.795105 318.952332,534.172485 
	C313.826874,544.781616 307.864899,554.674988 297.188019,560.652039 
	C295.745605,561.459534 293.682098,561.157532 291.551331,561.197388 
z"/>
<path fill="#F2EDEC" opacity="1.000000" stroke="none" 
	d="
M408.618530,514.066650 
	C411.151764,514.601318 413.744507,514.493958 415.188782,515.729309 
	C417.084686,517.350891 419.538086,520.432373 419.066772,522.148621 
	C418.537354,524.076416 415.035339,526.397766 412.791229,526.435364 
	C403.084869,526.597900 395.076324,522.161316 387.934814,516.076843 
	C387.987183,515.575195 388.039551,515.073608 388.091919,514.571960 
	C394.783661,514.388672 401.475403,514.205383 408.618530,514.066650 
z"/>
<path fill="#F2EDEC" opacity="1.000000" stroke="none" 
	d="
M349.276062,459.471130 
	C348.409332,452.880188 347.515350,446.685364 346.990021,440.459442 
	C346.831207,438.577148 347.326599,436.428925 348.164185,434.716492 
	C349.985992,430.991943 353.623444,430.764832 355.232513,434.521637 
	C356.536407,437.566071 356.923706,441.235199 356.800903,444.593750 
	C356.676331,448.000519 355.514984,451.388824 354.645569,454.743164 
	C353.862335,457.764832 352.859650,460.729584 351.522461,465.142792 
	C350.490967,462.584808 349.940674,461.220032 349.276062,459.471130 
z"/>
<path fill="#F2EDEC" opacity="1.000000" stroke="none" 
	d="
M341.297180,519.351929 
	C341.108734,519.392944 340.741394,519.221252 340.551727,518.895996 
	C340.859039,518.874634 340.988678,519.006958 341.297180,519.351929 
z"/>
<path fill="#D93A35" opacity="1.000000" stroke="none" 
	d="
M273.279022,339.396484 
	C282.179321,341.761963 285.937897,347.413422 284.436859,355.631561 
	C282.786438,364.667603 277.299744,367.773407 264.691803,366.550323 
	C264.691803,357.734985 264.691803,348.874786 264.691803,339.321411 
	C267.403900,339.321411 270.136230,339.321411 273.279022,339.396484 
z"/>
<path fill="#D93A35" opacity="1.000000" stroke="none" 
	d="
M238.591827,341.464722 
	C241.177399,348.156158 238.765472,351.820953 232.139374,351.926544 
	C230.032761,351.960114 227.925140,351.931793 225.551208,351.931793 
	C225.551208,347.505493 225.551208,343.610443 225.551208,338.210602 
	C230.099701,339.256958 234.221619,340.205200 238.591827,341.464722 
z"/>
</svg>