<?xml version="1.0" encoding="utf-8"?>
<!-- Generator: Adobe Illustrator 27.0.0, SVG Export Plug-In . SVG Version: 6.00 Build 0)  -->
<svg version="1.1" id="ptlslsclogocolour_xA0_Image_00000055697112505313842290000006164427207488469173_"
	 xmlns="http://www.w3.org/2000/svg" xmlns:xlink="http://www.w3.org/1999/xlink" x="0px" y="0px" viewBox="0 0 273.7 345.3"
	 style="enable-background:new 0 0 273.7 345.3;" xml:space="preserve">
<style type="text/css">
	.st0{fill:#fcbd30;}
</style>
<path d="M0.3,0c91.2,0,182.2,0,273.4,0c0,0.4,0,0.9,0,1.3c0,67.6,0,135.2,0,202.8c0,4.9-0.1,9.9-0.3,14.8c-0.1,1.5-0.7,3-0.9,4.5
	c-0.1,0.9-0.1,1.9,0,2.9c0.1,1.5-0.3,2.9-0.9,4.3c-0.6,1.5-0.5,3.2-0.8,5c-0.1,0-0.4,0.1-0.5,0.2c-0.3,1-0.7,1.8-0.9,2.6
	c-0.3,1.2-0.6,2.4-0.8,3.6c-0.4,1.8-0.8,3.6-1.3,5.3c-1.3,4-2.7,8-4.2,12c-0.8,2.2-1.8,4.3-2.7,6.5c-2.1,4.8-4.7,9.3-7.3,13.8
	c-1,1.6-2.1,3.2-3.1,4.8c-1.2,1.8-2.3,3.5-3.6,5.2c-1.5,2-3,4-4.6,5.9c-1.3,1.6-2.7,3.2-4.1,4.7c-1.4,1.6-2.9,3.1-4.4,4.6
	c-1.6,1.6-3.1,3.2-4.7,4.7c-0.9,0.8-1.9,1.6-2.8,2.3c-0.2,0.2-0.5,0.3-0.7,0.5c-0.9,1.7-2.8,2.2-4,3.4c-2.2,2.1-4.8,3.4-7.2,5.1
	c-3.2,2.4-6.7,4.4-10.1,6.6c-2,1.2-4.1,2.3-6.1,3.5c-0.3,0.2-0.7,0.2-1,0.3c-2.4,1.2-5.1,1.8-7.3,3.2c-0.5,0.3-1.1,0.5-1.7,0.7
	c-1.5,0.6-3,1.3-4.6,1.8c-2,0.6-4,1.1-5.9,1.7c-1,0.3-2,0.9-3,1.1c-2.7,0.7-5.5,1.3-8.2,2c-1.6,0.4-3.1,0.9-4.7,1.2
	c-2.2,0.4-4.4,0.7-6.6,1c-1.6,0.2-3.3,0.5-4.9,0.7c-2.4,0.3-4.8,0.5-7.2,0.7c-1.9,0.1-3.8,0.3-5.6,0.2c-3.2-0.1-6.5-0.2-9.7-0.4
	c-3.2-0.2-6.4-0.5-9.6-0.8c-2.3-0.2-4.5-0.5-6.8-1c-3.4-0.7-6.9-1.5-10.3-2.4c-5-1.3-10-2.8-14.8-4.6c-2.6-0.9-5.1-2-7.5-3.1
	c-2.3-1-4.8-1.8-7-3.2c-2.5-1.6-5.2-3.1-7.8-4.6c-1.8-1-3.5-2-5.3-3.1c-0.5-0.3-1-0.7-1.5-1.1c-3.2-2.4-6.5-4.7-9.7-7.1
	c-1.2-1-2.2-2.2-3.4-3.3c-1.5-1.3-3.1-2.5-4.6-3.9c-1.1-1.1-2-2.5-3-3.7c-1.6-1.8-3.3-3.4-4.9-5.2c-1.3-1.5-2.5-3-3.7-4.6
	c-1.2-1.6-2.3-3.2-3.4-4.8c-1.1-1.6-2.2-3.2-3.2-4.9c-1.1-1.7-2.1-3.4-3.1-5.1c-0.8-1.3-1.4-2.8-2.1-4.1c-0.8-1.4-1.6-2.8-2.4-4.2
	c-0.7-1.4-1.3-2.8-1.9-4.2c-0.7-1.6-1.3-3.2-1.9-4.9c0-0.1-0.1-0.2-0.1-0.3c-1.9-4-3-8.3-4.5-12.5c-0.7-2.1-1.4-4.2-1.9-6.4
	c-0.6-2.6-0.7-5.3-1.6-7.8c-0.5-1.5-0.2-3-0.6-4.4c-1-3.7-0.2-7.4-0.4-11.2c-0.1-1.3,0.2-2.6,0.2-3.9c0-71,0-141.9,0-212.9
	C0.3,1.3,0.3,0.7,0.3,0z M260.7,190.8c-1,0-1.5,0-2,0c-82,0-163.9,0-245.9,0c-0.4,0-0.8-0.1-1.1,0c-0.3,0.1-0.8,0.4-0.8,0.7
	c-0.2,1.4-0.4,2.8-0.4,4.2c0,1.9,0.2,3.9,0.3,5.8c0,0.7-0.2,1.3-0.2,2c0,1.7,0,3.3-0.1,5c0,2.1-0.2,4.1-0.1,6.2
	c0,1.6,0.3,3.3,0.4,4.9c0.2,2.1,0.2,4.2,0.5,6.2c0.3,2.4,0.9,4.7,1.4,7.1c0.8,3.6,1.6,7.2,2.5,10.8c0.6,2.4,1.4,4.8,2.2,7.1
	c0.7,1.9,1.4,3.8,2.2,5.6c0.7,1.6,1.4,3.2,2.2,4.8c0.8,1.8,1.6,3.7,2.5,5.4c2.1,3.6,4.2,7.2,6.4,10.8c1.6,2.7,3.2,5.4,5.2,7.9
	c2.3,2.9,4.8,5.5,7.3,8.2c1.9,2.1,3.7,4.2,5.7,6.2c1.9,1.8,4.1,3.4,5.9,5.2c3.2,3.3,7.2,5.5,10.8,8.3c1.4,1.1,3,2,4.6,2.9
	c1.7,1.1,3.5,2.2,5.3,3.1c1.7,0.9,3.4,1.6,5.1,2.4c2.6,1.2,5.2,2.5,7.9,3.6c3.6,1.3,7.2,2.5,10.8,3.6c1.7,0.5,3.3,1.1,5,1.5
	c4,0.9,8,1.7,12,2.3c2.9,0.5,5.8,0.7,8.8,1c2,0.2,3.9,0.2,5.9,0.3c2.3,0.1,4.5,0.1,6.8,0.1c2.4,0,4.9-0.2,7.3-0.3
	c1.9-0.1,3.7-0.3,5.5-0.6c2.1-0.3,4.3-0.7,6.4-1.1c2.1-0.4,4.2-0.6,6.3-1.1c2.6-0.6,5.1-1.3,7.7-2.1c1.4-0.4,2.9-0.8,4.3-1.3
	c1.9-0.7,3.8-1.6,5.6-2.4c4.1-1.8,8.4-3.4,12.3-5.5c5-2.6,9.7-5.6,14.5-8.6c2-1.2,3.8-2.8,5.6-4.3c2.3-1.9,4.5-3.8,6.7-5.7
	c2.2-2,4.4-4,6.4-6.2c3.1-3.5,6-7.2,9-10.9c1.2-1.5,2.5-3,3.5-4.6c2.6-4.3,5.3-8.6,7.7-13c2.6-4.9,5-9.9,6.6-15.3
	c0.6-2.1,1.5-4,2.2-6.1c1.6-5.4,2.9-10.8,3.7-16.4c0.1-0.9,0.4-1.8,0.5-2.7c0.2-1.9,0.4-3.8,0.6-5.7c0.2-2.4,0.3-4.8,0.4-7.2
	c0-0.5,0-1,0-1.5c0-1.2,0.1-2.4,0-3.7c-0.1-2.3-0.2-4.5-0.2-6.8C260.5,197.7,260.6,194.3,260.7,190.8z M143.9,78.5
	c0.6-0.5,1-0.8,1.3-1.1c1.9-1.8,3.8-3.8,6-5.3c2.9-2,6.1-2.9,9.5-2.7c3.8,0.3,7.5,1.3,10.3,4.3c0.9,1,0.8,2.3-0.6,2.6
	c-3,0.7-4.7,5-3.4,7.9c1,2.1,3.4,4,5.3,3.7c1.8-0.3,3.4-0.9,4.7-2.3c2.9-3,5.8-5.9,8.6-8.9c0.4-0.4,0.7-0.9,1.1-1.3
	c1.7-1.9,3.6-3.6,5.9-4.7c3.5-1.7,7.1-2.3,11-1.3c1.3,0.3,2.6,0.4,3.8,1c1.3,0.7,2.5,1.7,3.7,2.6c1.5,1,1.5,2-0.1,2.9
	c-2.6,1.4-4,3.5-3.8,6.4c0.2,2.8,2,4.5,4.6,5.2c1.7,0.5,3.5-0.1,4.9-1.4c1.1-1.1,2.2-2.2,3.3-3.3c1.8-1.8,3.7-3.6,5.5-5.4
	c2.3-2.3,4.3-4.9,7.2-6.5c1.7-0.9,3.4-2.1,5.3-2.3c5.1-0.6,10,0.3,14,3.8c1.2,1,1.2,2.3-0.1,3c-1.7,1-3,2.1-3.7,4.1
	c-1.1,3,1.3,6.6,3.8,7.2c2,0.4,3.8,0,5.6-1.1c1.5-0.9,1.9-0.7,2,1c0.2,1.8,0.1,3.1-1.3,3.7c-3.4,1.3-6.7,1.8-10-0.2
	c-3.4-2-5.4-4.8-5.1-8.8c0.1-1.9,0.7-3.7,1.2-5.5c0.4-1.4,0.4-1.8-1-2.1c-1-0.2-2.1-0.1-3.2,0c-2.6,0.1-4.9,1.1-6.8,2.9
	c-3.4,3.3-6.8,6.6-10.2,9.9c-1.4,1.3-2.7,2.9-4.3,3.8c-2,1.2-4.3,1.6-6.7,1.6c-2.5,0-4.6-1.1-6.5-2.5c-2.3-1.7-3.4-4.2-3.6-6.9
	c-0.2-2.2,0.5-4.2,1.5-6.2c0.4-0.9,0.4-1.7-0.7-1.9c-1-0.2-2.1-0.3-3.1-0.2c-2.2,0.3-4.5,0.5-6.3,2.2c-1.8,1.7-3.7,3.3-5.4,5
	c-1.9,1.8-3.6,3.6-5.5,5.4c-2.2,2.2-4.5,4.2-7.6,5.1c-1.9,0.6-3.8,0.6-5.5,0c-2.8-0.9-5.2-2.4-6.5-5.4c-1.5-3.2-1.1-6.3,0-9.4
	c0.7-2,0.5-2.6-1.5-2.8c-5.2-0.5-9,1.9-12.3,5.5c-1.4,1.5-2.7,3-4.3,4.2c-0.7,0.6-0.9,1-0.9,1.8c0,8.3,0,16.6,0,25
	c0,0.4,0,0.8,0.1,1.5c1.3-1.2,2.3-2.2,3.4-3.1c0.9-0.9,1.9-1.7,2.7-2.6c1.8-1.9,4.2-3,6.4-4.3c1.8-1.1,4-1.2,6.1-1.2
	c1.2,0,2.4,0.3,3.6,0.6c2.8,0.7,5.3,1.7,7.3,3.8c0.8,0.9,0.7,1.7-0.3,2.2c-1.3,0.6-2.2,1.5-3,2.5c-1.5,1.8-1.5,3.7-0.8,5.7
	c1.4,3.7,5.3,4.8,8.4,2.7c2.2-1.6,4.1-3.6,6.1-5.5c2.9-2.8,5.7-5.7,8.7-8.4c2.5-2.3,5.6-3.4,9-3.7c3.2-0.2,6.2,0.5,9,1.7
	c1.4,0.6,2.7,1.7,3.8,2.8c1,0.9,0.8,1.3-0.3,1.9c-1.5,0.8-2.8,1.7-3.6,3.4c-1.3,2.7-1.3,4.4,0.4,6.3c2.2,2.5,4.6,3.6,7.8,1.3
	c2.3-1.6,4.2-3.7,6.2-5.7c2.2-2.2,4.5-4.3,6.6-6.6c3.5-3.7,7.7-5.4,12.8-5.3c4.1,0.1,7.7,1.5,10.8,4.2c0.9,0.7,0.8,1.7-0.2,2.2
	c-2.2,1.1-3.7,2.6-4.1,5.3c-0.5,3.2,1.8,6.7,5.3,6.7c0.8,0,1.7-0.1,2.5,0.2c1.1,0.4,1.4,1.2,1.2,2.7c-0.2,1.3-1.1,1.6-2.1,1.7
	c-3,0.2-5.7-0.5-8.2-2.3c-2.3-1.7-3.3-3.9-3.5-6.5c-0.3-2.5,0.3-4.9,1.5-7.1c0.5-0.9,0.4-1.5-0.7-1.8c-0.8-0.2-1.5-0.5-2.3-0.6
	c-2.1-0.2-4.2,0.3-5.8,1.4c-2.4,1.6-4.5,3.7-6.6,5.7c-3,2.8-5.9,5.6-8.8,8.5c-0.7,0.6-1.3,1.5-2.2,1.8c-2.1,0.7-4.1,1.3-6.5,1.2
	c-4.5-0.2-7.3-2.5-8.9-6.4c-1.1-2.9-0.9-5.8,0.6-8.6c0.3-0.5,0.5-1.1,0.5-1.7c0-0.3-0.3-0.8-0.5-0.9c-1-0.3-2.1-0.7-3.1-0.6
	c-3.8,0.4-7,2-9.7,4.7c-1.5,1.5-3,3-4.5,4.5c-0.7,0.7-1.5,1.2-2.1,1.9c-2.3,2.6-4.7,5-8,6.5c-2.3,1-4.6,1-6.7,0.6
	c-2.5-0.4-4.6-2.1-6-4.2c-2.4-3.6-2.1-7.4-0.5-11.2c0.6-1.4,0.1-2.6-1.4-2.6c-1.3,0-2.7-0.1-4,0.3c-1.8,0.5-3.6,1.1-5,2.2
	c-2.5,1.9-4.6,4.3-6.9,6.5c-1.1,1-2.2,2.1-3.4,3.1c-0.5,0.4-0.8,0.8-0.8,1.5c0,6.8,0,13.7,0,20.5c0,0.4,0,0.8,0,1.4
	c0.5-0.3,0.8-0.5,1-0.7c0.9-0.9,1.7-1.8,2.7-2.7c1.4-1.2,2.8-2.2,4.2-3.3c1.8-1.5,3.9-2.3,6.1-2.7c4.2-0.7,8,0.2,11.6,2.3
	c1.3,0.8,2.8,1.5,3.3,3.3c-0.4,0.2-0.7,0.5-1.2,0.7c-2.2,0.9-3.5,2.5-4,4.7c-0.6,2.6,0.8,5.2,3.4,6.6c1.9,1,4.5,0.5,6.4-1.3
	c3.2-3.1,6.5-6.2,9.6-9.3c2-2,4.1-3.9,6.6-5.4c2.2-1.3,4.7-1.8,7.2-1.9c2.3-0.1,4.7,0.2,7,1.2c1.8,0.8,3.5,1.6,4.9,3
	c1.1,1.1,0.9,2-0.5,2.6c-2.7,1.2-4.2,3.3-3.9,6.3c0.2,2.7,2.7,5.3,5.6,5.2c2.2-0.1,3.7-1.3,5.2-2.6c1.2-1,2.3-2.2,3.5-3.3
	c1-0.9,2.1-1.8,3.1-2.8c1.7-1.8,3.3-3.8,5.1-5.5c3-2.7,6.6-4.3,10.7-4.6c1.8-0.1,3.5,0.6,5.2,0.8c2.5,0.4,4.4,1.7,6.4,3
	c2.2,1.5,2.2,2-0.2,3.2c-2.8,1.5-4.9,5.2-2.7,8.6c1.5,2.5,4.4,3.7,7.1,2.6c1.4-0.6,2.4,0,2.2,1.5c-0.1,0.4,0.1,0.9-0.1,1.3
	c-0.2,0.6-0.5,1.3-1,1.5c-1.3,0.4-2.7,0.9-4,0.7c-2.2-0.3-4.5-0.5-6.4-2.3c-2.7-2.5-4-5.4-3.6-9.1c0.2-1.7,0.7-3.1,1.4-4.6
	c0.6-1.4,0.3-1.8-1.2-2.2c-1.6-0.5-3-0.1-4.6,0c-1.4,0.2-2.5,0.7-3.7,1.3c-1.2,0.7-2.1,1.5-3.1,2.5c-1.9,2-3.9,3.7-6,5.6
	c-0.8,0.7-1.7,1.3-2.4,2.1c-1.6,1.6-3.1,3.3-4.8,4.8c-2.1,1.8-4.6,2.1-7.4,2c-2.7-0.1-4.9-1.2-6.6-3c-2.9-3.1-3.6-6.7-2.2-10.8
	c0.3-1,0.8-1.9,1.1-2.9c0.1-0.4-0.2-1.2-0.5-1.2c-1.3-0.3-2.7-0.7-4-0.5c-1.7,0.3-3.6,0.5-5,1.9c-1.5,1.4-3.3,2.5-4.8,3.9
	c-1.8,1.6-3.4,3.4-5.1,5.1c-1.5,1.4-3.1,2.7-4.5,4.1c-2.5,2.6-5.6,3.6-9.1,3.5c-2.8-0.1-5.3-1.5-7-3.9c-2.6-3.8-3.1-7.7-0.9-11.9
	c0.6-1.1,0.3-2.2-0.8-2.4c-0.8-0.1-1.7-0.2-2.5-0.3c-3.5-0.1-6.4,1.4-9,3.7c-2.1,1.9-4.3,3.8-6.3,5.9c-0.7,0.8-1.9,1.2-1.9,2.8
	c0.1,9.5,0,19,0.1,28.6c0,0.4,0,0.8,0.1,1.1c39.2,0,78.3,0,117.4,0c0-55.4,0-110.6,0-165.9c-39.2,0-78.3,0-117.4,0
	C143.9,34.5,143.9,56.3,143.9,78.5z M45.4,152.1c0.1-0.8,0.2-1.6,0.2-2.4c0.2-2.2,0.3-4.4,0.5-6.6c0.3-3.5,0.6-6.9,0.9-10.4
	c0.2-2.2,0.3-4.4,0.5-6.6c0.3-3.6,0.6-7.1,0.9-10.7c0.2-2.1,0.3-4.3,0.5-6.4c0.3-3.4,0.6-6.7,0.9-10.1c0.2-2.3,0.3-4.6,0.5-6.9
	c0.3-3.6,0.6-7.1,1-10.7c0.2-1.7,0-3.5,1.5-4.7c0.4-0.3,0.8-0.6,1.3-1c-0.7-0.2-1.3-0.3-1.8-0.5c-0.5-0.2-1.1-0.4-1.4-0.8
	c-1.4-2-0.3-4.5,2.1-5c0.8-0.2,1.6-0.4,2.5-0.6c-0.3-0.2-0.4-0.2-0.5-0.3c-1.3-0.5-2.2-1.6-2-2.6c0.2-1.1,1.2-1.8,2.8-1.7
	c1.1,0,2.2,0.2,3.3,0.2c5.4,0.1,10.7,0.2,16.1,0.2c2.7,0,5.4-0.1,8.1,0c2,0.1,4,0.3,6,0.7c0.5,0.1,1.3,1,1.2,1.5
	c-0.1,0.6-0.8,1.4-1.4,1.5c-2.3,0.3-4.6,0.4-6.9,0.4c-4.7,0-9.4-0.1-14.2-0.2c0,0-0.1,0.1-0.2,0.3c1.3,0,2.5,0,3.7,0
	c2.3,0.1,4.7,0.3,7,0.4c2.4,0.1,4.8,0,7.3,0.2c1.7,0.1,3.4,0.6,5.2,0.8c1.6,0.2,2.3,1.8,1.9,3.1c-0.3,1.2-1.1,1.8-2.5,1.9
	c-2.5,0.1-5,0.5-7.4,0.5c-3.7,0-7.3-0.2-11-0.3c-2.1,0-4.1-0.1-6.2,0c-0.6,0-1.3,0.2-1.9,0.3c0,0.1,0,0.3,0,0.4c1.4,0,2.8,0,4.2,0
	c1.5,0,3-0.2,4.6-0.2c2.2,0,4.4,0.2,6.5,0.3c3.1,0.1,6.3,0.3,9.4,0.4c1.4,0.1,2.1,0.7,2.2,2c0.2,1.8,0.2,3.6,0.4,5.4
	c0.1,1.2,0.3,2.4,0.3,3.6c0.1,1.8,0,3.7,0.1,5.5c0.2,2.8,0.5,5.6,0.6,8.5c0.1,1.8-0.1,3.6,0,5.4c0.2,3,0.5,6.1,0.7,9.1
	c0.2,3.4,0.3,6.8,0.6,10.2c0.3,3.9,0.6,7.7,0.9,11.6c0.3,3.6,0.5,7.1,0.7,10.7c0.3,4.6,0.8,9.3,0.9,13.9c0,1.9,1.8,3.5,3.6,3.8
	c1.5,0.2,3.1,0.6,4.6,1c1.4,0.4,2.8,0.9,4.2,1.3c1.7,0.5,3.4,1.1,5.1,1.6c0.6,0.2,1.2,0.4,1.7,0.7c0.8,0.5,1.6,1.3,2.4,1.7
	c2.5,1.1,5.2,2.1,7.7,3.2c0.7,0.3,1.8,0.2,1.8,1.4c0,0.1,0.3,0.2,0.5,0.2c1,0,2.1,0,3.2,0c0-55,0-109.8,0-164.8
	c-39.6,0-79.2,0-118.9,0c0,44.5,0,89,0,133.6c0.4,0,0.7-0.1,1.1-0.1c1-0.1,1.9-0.3,2.9-0.4c2.7-0.1,5.1,0.9,7.6,1.8
	c2.6,1,5.2,2.3,8.1,2.5c0.7,0,1.4-0.3,2,0c2.3,1,4.7,1.1,7.1,1.6C42.3,151.9,43.7,152.8,45.4,152.1z M122.6,178.5
	c-1.4-0.5-3-0.9-4.5-1.6c-1.6-0.8-3.2-1.7-4.7-2.6c-1.7-1-3.4-1.6-5.3-2c-2-0.3-4-1.1-6-1.5c-1.5-0.3-3-0.7-4.5-1.3
	c-1.6-0.7-3.1-1.3-4.4-2.5c-0.7-0.6-1.5-1.3-2.4-1.5c-2.3-0.3-4.5-1.2-6.7-2c-0.8-0.3-1.5-0.7-2.3-0.9c-2.2-0.5-4.5-1.1-6.7-1.3
	c-2.2-0.2-4.5-0.1-6.7-0.1c-1.9,0-3.8,0.2-5.6,0c-2.7-0.3-5.3-0.9-7.9-1.3c-1.6-0.3-3.2-0.2-4.7-0.7c-3.8-1.3-7.4-2.9-11.2-4.1
	c-1.7-0.5-3.5-0.6-5.3-0.7c-1.8-0.2-3.6,0.1-5.3-0.4c-1.9-0.5-3.8-1.6-5.6-2.5c-1.9-1-3.7-2.1-5.9-1.7c-1.2,0.2-2.3,0.7-3.5,0.9
	c-1,0.1-1.3,0.6-1.3,1.6c0,8.4,0,16.8,0,25.2c0,0.4,0,0.8,0.1,1.3C49.1,178.5,85.9,178.5,122.6,178.5z M82.2,108
	c-0.1-1.1-0.3-2.1-0.2-3.1c0-0.8-0.2-1.4-1-1.5c-0.8-0.1-2.1-0.5-2.3,0.8c-0.2,1.6-0.3,3.2-0.2,4.8c0.1,1.5,1.5,1.1,2.4,1.2
	c0.4,0,0.9-0.7,1.2-1.2C82.2,108.8,82.1,108.3,82.2,108z M62.3,135.3c0.5-0.3,1.4-0.5,1.6-0.9c0.5-1.4,0.8-2.9,0.2-4.4
	c-0.1-0.4-0.7-0.9-1.1-0.9c-2.1-0.3-2.3-0.1-2.6,2c-0.1,0.6-0.2,1.3-0.2,1.9C60.1,134.6,59.9,134.9,62.3,135.3z M62.5,87.2
	c0.5,0.2,0.9,0.3,1.3,0.4c0.9,0.1,1.4-0.3,1.5-1.2c0.1-1,0-2,0-2.9c0-1-0.9-1.3-1.5-1.4c-0.6-0.1-1.3,0.5-1.3,1.3
	C62.5,84.6,62.5,85.9,62.5,87.2z"/>
<path class="st0" d="M260.7,190.8c-0.1,3.5-0.2,6.9-0.2,10.2c0,2.3,0.2,4.5,0.2,6.8c0,1.2,0,2.4,0,3.7c0,0.5,0,1,0,1.5
	c-0.1,2.4-0.2,4.8-0.4,7.2c-0.1,1.9-0.3,3.8-0.6,5.7c-0.1,0.9-0.3,1.8-0.5,2.7c-0.8,5.6-2.1,11-3.7,16.4c-0.6,2.1-1.5,4-2.2,6.1
	c-1.7,5.3-4.1,10.4-6.6,15.3c-2.3,4.5-5,8.7-7.7,13c-1,1.6-2.3,3.1-3.5,4.6c-3,3.7-5.9,7.4-9,10.9c-2,2.2-4.2,4.2-6.4,6.2
	c-2.2,2-4.4,3.9-6.7,5.7c-1.8,1.5-3.6,3-5.6,4.3c-4.8,3-9.6,5.9-14.5,8.6c-4,2.1-8.2,3.7-12.3,5.5c-1.9,0.8-3.7,1.7-5.6,2.4
	c-1.4,0.5-2.9,0.9-4.3,1.3c-2.6,0.7-5.1,1.5-7.7,2.1c-2.1,0.5-4.2,0.7-6.3,1.1c-2.1,0.4-4.2,0.8-6.4,1.1c-1.8,0.3-3.7,0.5-5.5,0.6
	c-2.4,0.2-4.9,0.3-7.3,0.3c-2.3,0-4.5,0-6.8-0.1c-2,0-3.9-0.1-5.9-0.3c-2.9-0.3-5.9-0.5-8.8-1c-4-0.7-8-1.5-12-2.3
	c-1.7-0.4-3.4-0.9-5-1.5c-3.6-1.2-7.3-2.3-10.8-3.6c-2.7-1-5.3-2.4-7.9-3.6c-1.7-0.8-3.5-1.5-5.1-2.4c-1.8-1-3.5-2.1-5.3-3.1
	c-1.5-0.9-3.2-1.8-4.6-2.9c-3.6-2.8-7.6-5-10.8-8.3c-1.8-1.9-4-3.4-5.9-5.2c-2-2-3.9-4.1-5.7-6.2c-2.5-2.7-5-5.3-7.3-8.2
	c-1.9-2.5-3.5-5.2-5.2-7.9c-2.2-3.6-4.4-7.2-6.4-10.8c-1-1.7-1.7-3.6-2.5-5.4c-0.7-1.6-1.5-3.2-2.2-4.8c-0.8-1.8-1.5-3.7-2.2-5.6
	c-0.8-2.3-1.6-4.7-2.2-7.1c-0.9-3.6-1.7-7.2-2.5-10.8c-0.5-2.3-1-4.7-1.4-7.1c-0.3-2.1-0.4-4.2-0.5-6.2c-0.1-1.6-0.4-3.3-0.4-4.9
	c0-2.1,0.1-4.1,0.1-6.2c0-1.7,0-3.3,0.1-5c0-0.7,0.2-1.3,0.2-2c-0.1-1.9-0.3-3.9-0.3-5.8c0-1.4,0.2-2.8,0.4-4.2
	c0-0.3,0.5-0.5,0.8-0.7c0.3-0.1,0.7,0,1.1,0c82,0,163.9,0,245.9,0C259.2,190.8,259.7,190.8,260.7,190.8z M97.5,243.3
	c-0.1-0.8,0.4-1.2,1-1.6c4.5-2.7,9.2-4.8,14.3-6.1c2.9-0.7,5.8-1.2,8.7-1.7c2.2-0.4,4.1-1,5.5-3.1c0.9-1.3,2.4-2.6,3.9-3.1
	c4-1.4,7.8-0.8,10.9,2.4c0.7,0.8,1.3,1.8,2.2,2.3c1.1,0.6,2.5,0.9,3.7,1.3c1.9,0.5,3.9,0.8,5.9,1.4c2.3,0.7,4.7,1.4,7,2.2
	c2,0.7,4,1.3,5.9,2.2c2.2,1,4.3,2.2,6.4,3.3c1.1,0.6,1.8,0.2,2-1c0.1-1,0.2-2,0.3-3c0.3-3.5-0.3-7-0.9-10.4
	c-0.5-2.6-1.2-5.2-2.6-7.6c-1.3-2.1-2.2-4.5-3.5-6.6c-1.7-2.8-4-5.3-6.6-7.4c-1.7-1.4-3.6-2.6-5.4-3.8c-4.3-2.8-9.1-4.7-14.2-5.6
	c-2.6-0.4-5.3-0.9-7.9-1c-2.2-0.1-4.4,0.1-6.6,0.5c-2,0.3-4,0.9-5.9,1.7c-3.6,1.3-7,3.1-10,5.4c-2.2,1.6-4.4,3.4-6.3,5.4
	c-2.1,2.3-4,4.9-5.6,7.6c-1.2,1.9-1.8,4-2.8,6.1c-1.5,3.4-2.2,7-2.4,10.7c-0.1,1.4,0,2.8,0,4.1c0,1.4,0.1,2.7,0.3,4.1
	c0.1,0.8,0.6,1.3,1.5,1.3C96.7,243.3,97.1,243.3,97.5,243.3c-0.2,0.4-0.4,1-0.7,1.3c-2.8,2.3-5.8,4.4-8.5,6.8
	c-2.6,2.3-5.2,4.8-7.5,7.5c-2.6,3-4.9,6.3-6.7,9.9c-1.5,3-3,6-4.5,9c-0.4,0.9-1,1.4-2.1,1.4c-6.2-0.1-12.3,0-18.5,0
	c-1.8,0-3.4,0.3-4.8,1.5c-0.8,0.7-1.6,3-1.3,4.1c0.7,2.2,2.8,3.6,5.1,3.6c5.4,0,10.9,0,16.3,0c0.5,0,0.9,0,1.4,0
	c0,0.5,0.1,0.8,0.1,1.1c-0.3,1.9-0.7,3.8-0.8,5.7c-0.2,2.3-0.8,4.6,0.8,6.7c1,1.4,3.6,2.8,5.4,2.3c2.1-0.6,3.6-1.9,4.1-4.1
	c0.4-2.1,0.8-4.2,1.2-6.4c0.3-1.6,0.8-3.2,1.1-4.8c38.3,0,76.3,0,114.2,0c0.4,1.2,0.8,2.2,1,3.2c0.5,2.8,0.9,5.5,1.2,8.3
	c0.3,2.7,2.9,5.1,5.5,4.9c1.6-0.1,3.1-0.5,4.3-1.8c2.1-2.3,1.6-5,1.5-7.6c-0.1-2.1-1.1-4.2-0.1-6.4c0.3,0,0.7-0.1,1-0.1
	c5.5,0,11-0.1,16.4,0c2,0,3.7-1.7,3.9-3.4c0.2-2.1-0.8-3.8-1.9-5.4c-0.7-1-1.5-1.6-2.8-1.5c-6.6,0.1-13.1,0-19.7,0
	c-0.4,0-1.1-0.2-1.3-0.5c-1.1-2-2-4-3.1-6c-1.3-2.4-2.5-4.9-3.9-7.2c-1-1.6-2.2-3-3.3-4.4c-1.3-1.6-2.4-3.3-3.9-4.7
	c-3-3-6.2-5.8-9.4-8.7c-1.4-1.2-2.8-2.4-4.4-3.4c-1.4-0.9-3.2-1.3-4.6-2.2c-3.1-2-6.5-3.2-9.9-4.3c-4-1.3-8-2.9-12.4-3
	c-3.5-0.1-7-0.7-10.5-0.8c-3-0.1-6.1-0.1-9.1,0.3c-3.5,0.5-7,1.6-10.5,2.2c-3.6,0.6-7,2.1-10.4,3.4c-1.7,0.6-3.3,1.5-4.9,2.3
	C99.4,242.4,98.4,242.9,97.5,243.3z M136,232.2c0,0,0,0.1,0,0.1c1.2-0.1,2.5-0.2,3.7-0.3c0.4-0.1,0.8-0.3,1.2-0.5
	c-0.2-0.5-0.4-1.2-0.7-1.4c-1.2-0.6-2.5-1.2-3.8-1.6c-2.8-0.8-5.1,0.2-7,2.2c-0.3,0.3-0.4,0.9-0.3,1.3c0,0.2,0.6,0.4,1,0.4
	C132,232.5,134,232.3,136,232.2z"/>
<path class="st0" d="M143.9,78.5c0-22.2,0-44,0-65.9c39.1,0,78.2,0,117.4,0c0,55.2,0,110.5,0,165.9c-39.1,0-78.2,0-117.4,0
	c0-0.4-0.1-0.8-0.1-1.1c0-9.5,0-19-0.1-28.6c0-1.6,1.2-2,1.9-2.8c2-2.1,4.2-4,6.3-5.9c2.5-2.3,5.4-3.7,9-3.7c0.8,0,1.7,0.1,2.5,0.3
	c1.1,0.2,1.4,1.2,0.8,2.4c-2.2,4.1-1.8,8.1,0.9,11.9c1.7,2.4,4.2,3.8,7,3.9c3.4,0.1,6.6-0.9,9.1-3.5c1.4-1.5,3-2.7,4.5-4.1
	c1.7-1.7,3.3-3.4,5.1-5.1c1.5-1.4,3.3-2.5,4.8-3.9c1.5-1.4,3.3-1.5,5-1.9c1.2-0.2,2.7,0.2,4,0.5c0.2,0.1,0.6,0.9,0.5,1.2
	c-0.2,1-0.7,1.9-1.1,2.9c-1.3,4-0.7,7.7,2.2,10.8c1.7,1.8,3.9,2.9,6.6,3c2.7,0.1,5.3-0.2,7.4-2c1.7-1.5,3.2-3.3,4.8-4.8
	c0.8-0.7,1.7-1.4,2.4-2.1c2-1.8,4.1-3.6,6-5.6c0.9-1,1.9-1.8,3.1-2.5c1.2-0.6,2.3-1.2,3.7-1.3c1.5-0.2,3-0.5,4.6,0
	c1.5,0.5,1.8,0.9,1.2,2.2c-0.7,1.5-1.2,2.9-1.4,4.6c-0.4,3.7,0.9,6.5,3.6,9.1c1.9,1.8,4.1,2.1,6.4,2.3c1.3,0.1,2.7-0.3,4-0.7
	c0.4-0.1,0.7-0.9,1-1.5c0.2-0.4,0-0.9,0.1-1.3c0.2-1.5-0.8-2.2-2.2-1.5c-2.7,1.2-5.5-0.1-7.1-2.6c-2.2-3.4-0.1-7.1,2.7-8.6
	c2.3-1.2,2.4-1.7,0.2-3.2c-2-1.3-3.9-2.6-6.4-3c-1.7-0.2-3.4-0.9-5.2-0.8c-4.1,0.3-7.7,1.9-10.7,4.6c-1.9,1.7-3.4,3.7-5.1,5.5
	c-1,1-2,1.8-3.1,2.8c-1.2,1.1-2.3,2.3-3.5,3.3c-1.5,1.3-3,2.5-5.2,2.6c-2.9,0.1-5.4-2.6-5.6-5.2c-0.3-3,1.2-5.2,3.9-6.3
	c1.4-0.6,1.6-1.5,0.5-2.6c-1.4-1.4-3.1-2.2-4.9-3c-2.3-0.9-4.7-1.3-7-1.2c-2.5,0.1-5,0.6-7.2,1.9c-2.5,1.5-4.6,3.3-6.6,5.4
	c-3.1,3.2-6.3,6.3-9.6,9.3c-1.9,1.8-4.5,2.3-6.4,1.3c-2.6-1.4-4-4-3.4-6.6c0.5-2.2,1.9-3.8,4-4.7c0.4-0.2,0.8-0.5,1.2-0.7
	c-0.5-1.8-2-2.5-3.3-3.3c-3.6-2.1-7.4-3-11.6-2.3c-2.3,0.4-4.3,1.3-6.1,2.7c-1.4,1.1-2.9,2.2-4.2,3.3c-1,0.8-1.8,1.8-2.7,2.7
	c-0.2,0.2-0.5,0.4-1,0.7c0-0.6,0-1,0-1.4c0-6.8,0-13.7,0-20.5c0-0.7,0.2-1.1,0.8-1.5c1.2-1,2.3-2.1,3.4-3.1c2.3-2.2,4.4-4.5,6.9-6.5
	c1.4-1.1,3.3-1.7,5-2.2c1.2-0.4,2.6-0.3,4-0.3c1.5,0,2,1.2,1.4,2.6c-1.7,3.8-1.9,7.6,0.5,11.2c1.4,2.1,3.6,3.8,6,4.2
	c2.1,0.4,4.4,0.4,6.7-0.6c3.3-1.5,5.7-3.9,8-6.5c0.6-0.7,1.4-1.3,2.1-1.9c1.5-1.5,3-3,4.5-4.5c2.7-2.7,5.9-4.3,9.7-4.7
	c1-0.1,2.1,0.3,3.1,0.6c0.3,0.1,0.5,0.6,0.5,0.9c-0.1,0.6-0.3,1.1-0.5,1.7c-1.4,2.8-1.7,5.8-0.6,8.6c1.6,3.9,4.4,6.2,8.9,6.4
	c2.4,0.1,4.4-0.5,6.5-1.2c0.8-0.3,1.5-1.1,2.2-1.8c2.9-2.8,5.8-5.7,8.8-8.5c2.1-2,4.2-4,6.6-5.7c1.6-1.1,3.7-1.6,5.8-1.4
	c0.8,0.1,1.5,0.3,2.3,0.6c1,0.3,1.1,0.9,0.7,1.8c-1.1,2.2-1.8,4.6-1.5,7.1c0.3,2.6,1.2,4.8,3.5,6.5c2.5,1.9,5.2,2.6,8.2,2.3
	c1-0.1,1.9-0.5,2.1-1.7c0.2-1.4,0-2.3-1.2-2.7c-0.8-0.3-1.7-0.2-2.5-0.2c-3.5,0-5.8-3.5-5.3-6.7c0.4-2.7,1.9-4.1,4.1-5.3
	c1-0.5,1.1-1.4,0.2-2.2c-3.1-2.6-6.6-4.1-10.8-4.2c-5.1-0.1-9.3,1.6-12.8,5.3c-2.1,2.3-4.3,4.4-6.6,6.6c-2,2-3.9,4.1-6.2,5.7
	c-3.2,2.3-5.6,1.2-7.8-1.3c-1.7-1.9-1.7-3.7-0.4-6.3c0.8-1.7,2.1-2.6,3.6-3.4c1.2-0.6,1.3-1,0.3-1.9c-1.1-1.1-2.4-2.2-3.8-2.8
	c-2.8-1.2-5.8-2-9-1.7c-3.4,0.2-6.5,1.3-9,3.7c-3,2.7-5.8,5.6-8.7,8.4c-2,1.9-3.9,4-6.1,5.5c-3,2.2-7,1-8.4-2.7
	c-0.7-1.9-0.6-3.9,0.8-5.7c0.9-1,1.8-1.9,3-2.5c1.1-0.5,1.2-1.3,0.3-2.2c-2-2.1-4.6-3.1-7.3-3.8c-1.2-0.3-2.4-0.6-3.6-0.6
	c-2.1,0-4.3,0-6.1,1.2c-2.2,1.3-4.6,2.4-6.4,4.3c-0.8,0.9-1.8,1.7-2.7,2.6c-1.1,1-2.1,2-3.4,3.1c0-0.7-0.1-1.1-0.1-1.5
	c0-8.3,0-16.6,0-25c0-0.8,0.2-1.3,0.9-1.8c1.6-1.2,2.9-2.8,4.3-4.2c3.3-3.5,7.2-6,12.3-5.5c2,0.2,2.2,0.8,1.5,2.8
	c-1.1,3.1-1.5,6.2,0,9.4c1.4,3,3.7,4.5,6.5,5.4c1.7,0.6,3.7,0.5,5.5,0c3.1-0.9,5.4-2.9,7.6-5.1c1.8-1.8,3.6-3.7,5.5-5.4
	c1.8-1.7,3.6-3.3,5.4-5c1.8-1.7,4.1-1.9,6.3-2.2c1-0.1,2.1,0,3.1,0.2c1.1,0.2,1.1,1,0.7,1.9c-1,2-1.7,4-1.5,6.2
	c0.3,2.7,1.3,5.2,3.6,6.9c2,1.5,4,2.5,6.5,2.5c2.4,0,4.7-0.4,6.7-1.6c1.6-1,2.9-2.5,4.3-3.8c3.4-3.3,6.8-6.7,10.2-9.9
	c1.9-1.8,4.2-2.8,6.8-2.9c1.1-0.1,2.1-0.2,3.2,0c1.4,0.2,1.4,0.7,1,2.1c-0.6,1.8-1.1,3.7-1.2,5.5c-0.3,4,1.8,6.8,5.1,8.8
	c3.3,2,6.7,1.5,10,0.2c1.5-0.6,1.5-1.9,1.3-3.7c-0.2-1.7-0.5-1.9-2-1c-1.8,1.1-3.6,1.5-5.6,1.1c-2.5-0.6-5-4.2-3.8-7.2
	c0.7-2,2-3.2,3.7-4.1c1.4-0.8,1.4-2,0.1-3c-4.1-3.5-9-4.3-14-3.8c-1.8,0.2-3.6,1.3-5.3,2.3c-2.9,1.6-4.9,4.2-7.2,6.5
	c-1.8,1.8-3.7,3.6-5.5,5.4c-1.1,1.1-2.2,2.2-3.3,3.3c-1.4,1.3-3.2,1.9-4.9,1.4c-2.5-0.7-4.4-2.4-4.6-5.2c-0.2-2.9,1.3-5,3.8-6.4
	c1.6-0.8,1.6-1.8,0.1-2.9c-1.2-0.9-2.4-1.9-3.7-2.6c-1.1-0.6-2.5-0.7-3.8-1c-3.8-1-7.5-0.3-11,1.3c-2.3,1.1-4.2,2.8-5.9,4.7
	c-0.4,0.4-0.7,0.9-1.1,1.3c-2.9,3-5.8,5.9-8.6,8.9c-1.3,1.4-2.9,1.9-4.7,2.3c-1.9,0.4-4.3-1.5-5.3-3.7c-1.3-2.8,0.5-7.2,3.4-7.9
	c1.3-0.3,1.5-1.6,0.6-2.6c-2.8-3-6.5-4-10.3-4.3c-3.4-0.3-6.6,0.7-9.5,2.7c-2.2,1.5-4,3.5-6,5.3C144.8,77.7,144.5,78,143.9,78.5z
	 M162.5,38c-5.3,0-9.3,1.7-12.6,4.9c-1.2,1.1-2.2,2.4-3.5,3.4c-2,1.6-2.2,3.4-1.7,5.6c0.3,1.2,0.9,1.4,1.8,0.5
	c1.6-1.4,3.2-2.7,4.7-4.2c1.6-1.6,3.2-3,5.3-4c2.4-1.2,4.8-1.5,7.4-1.1c0.8,0.1,1,0.7,0.9,1.4c-0.1,0.5-0.3,0.9-0.5,1.3
	c-1.3,2.3-1.4,4.8-0.8,7.2c0.6,2.7,2.4,4.8,4.9,6.3c3.5,2,6.8,1.9,10.2,0.3c1.8-0.9,3.4-2.1,4.8-3.7c1.2-1.5,2.9-2.6,4.2-4
	c1.6-1.6,3-3.3,4.7-4.8c1.4-1.2,3-2.2,4.6-3.2c2.4-1.5,4.9-1.8,7.6-1c0.7,0.2,1,0.8,0.7,1.2c-0.8,1.2-1.2,2.4-1.3,3.9
	c0,0.6-0.6,1.2-0.5,1.7c0.4,2,0.5,4,1.7,6c1.5,2.3,3.5,3.6,5.9,4.6c2.6,1.1,5.1,0.2,7.6-0.4c0.6-0.1,1.1-0.4,1.6-0.8
	c1.6-1.4,3.3-2.9,4.8-4.3c1.1-1,2.1-2.1,3.2-3.1c1.2-1.2,2.5-2.3,3.8-3.4c2.3-2,4.3-4.3,7.5-5.2c2-0.6,3.9-0.6,5.8-0.3
	c0.8,0.1,1.1,0.6,0.7,1.4c-0.3,0.7-0.6,1.4-0.8,2.1c-0.3,1.5-0.9,3.1-0.8,4.6c0.1,2.7,1.2,5.1,3.5,6.8c0.9,0.7,1.8,1.8,2.9,2
	c2.1,0.4,4.3,0.5,6.5,0.5c1.7,0,2.9-0.8,3-2c0.1-0.9,0-1.8-0.3-2.7c-0.2-0.5-0.7-1-1.5-0.7c-0.8,0.3-1.7,0.4-2.5,0.6
	c-2.2,0.4-5.4-1.6-5.8-3.7c-0.7-3.7,0.3-5.4,3.5-7.3c0.5-0.3,1.3-0.9,1.3-1.3c-0.1-0.7-0.5-1.6-1.1-2.1c-2-1.3-4-2.5-6.4-3.1
	c-4.1-1-8.2-0.9-12,1c-1.7,0.8-3.2,2-4.6,3.2c-0.9,0.7-1.7,1.6-2.6,2.4c-1.5,1.5-3.1,3.1-4.6,4.6c-1.7,1.6-3.3,3.2-5.1,4.7
	c-1.9,1.6-4,2.1-6.4,1c-3.1-1.4-4.2-5.7-2.1-8.1c1-1.1,2.3-2,3.4-3c0.9-0.8,1.1-1.4,0.1-2.1c-1.8-1.3-3.7-2.6-5.8-3.4
	c-3.3-1.2-6.7-1.7-10.3-0.7c-2.6,0.7-4.9,1.7-6.9,3.4c-2.3,2-4.3,4.3-6.5,6.4c-2.3,2.3-4.8,4.4-7,6.8c-1.4,1.5-5.2,1.3-6.4,0.5
	c-2.8-1.8-3.7-6.4-0.8-8.9c0.8-0.7,1.7-1.3,2.7-1.9c1-0.6,0.8-1.3,0.2-2.1c-0.3-0.4-0.6-0.7-1-1C168.9,39.4,165.6,37.8,162.5,38z"/>
<path class="st0" d="M45.4,152.1c-1.8,0.7-3.1-0.2-4.5-0.5c-2.4-0.5-4.8-0.6-7.1-1.6c-0.5-0.2-1.3,0.1-2,0c-2.9-0.2-5.4-1.5-8.1-2.5
	c-2.5-0.9-4.9-1.9-7.6-1.8c-1,0-1.9,0.2-2.9,0.4c-0.3,0-0.7,0.1-1.1,0.1c0-44.6,0-89,0-133.6c39.6,0,79.2,0,118.9,0
	c0,54.9,0,109.8,0,164.8c-1.1,0-2.1,0-3.2,0c-0.2,0-0.5-0.1-0.5-0.2c-0.1-1.2-1.1-1.1-1.8-1.4c-2.6-1.1-5.2-2.1-7.7-3.2
	c-0.9-0.4-1.6-1.2-2.4-1.7c-0.5-0.3-1.1-0.5-1.7-0.7c-1.7-0.6-3.4-1.1-5.1-1.6c-1.4-0.4-2.8-1-4.2-1.3c-1.5-0.4-3-0.8-4.6-1
	c-1.7-0.3-3.5-1.8-3.6-3.8c-0.1-4.6-0.6-9.3-0.9-13.9c-0.2-3.6-0.5-7.1-0.7-10.7c-0.3-3.9-0.6-7.7-0.9-11.6
	c-0.2-3.4-0.3-6.8-0.6-10.2c-0.2-3-0.5-6.1-0.7-9.1c-0.1-1.8,0.1-3.6,0-5.4c-0.2-2.8-0.5-5.6-0.6-8.5c-0.1-1.8,0-3.7-0.1-5.5
	c0-1.2-0.2-2.4-0.3-3.6c-0.1-1.8-0.2-3.6-0.4-5.4c-0.1-1.3-0.8-1.9-2.2-2c-3.1-0.2-6.3-0.3-9.4-0.4c-2.2-0.1-4.4-0.3-6.5-0.3
	c-1.5,0-3,0.2-4.6,0.2c-1.4,0-2.8,0-4.2,0c0-0.1,0-0.3,0-0.4c0.6-0.1,1.3-0.3,1.9-0.3c2.1,0,4.1,0,6.2,0c3.7,0.1,7.3,0.3,11,0.3
	c2.5,0,5-0.4,7.4-0.5c1.4,0,2.2-0.6,2.5-1.9c0.3-1.3-0.3-2.9-1.9-3.1c-1.7-0.2-3.4-0.7-5.2-0.8c-2.4-0.2-4.8-0.1-7.3-0.2
	c-2.3-0.1-4.7-0.3-7-0.4c-1.2-0.1-2.4,0-3.7,0c0.2-0.2,0.2-0.3,0.2-0.3c4.7,0.1,9.4,0.2,14.2,0.2c2.3,0,4.6-0.2,6.9-0.4
	c0.5-0.1,1.3-0.9,1.4-1.5c0-0.5-0.7-1.4-1.2-1.5c-2-0.4-4-0.6-6-0.7c-2.7-0.1-5.4,0-8.1,0c-5.4-0.1-10.7-0.1-16.1-0.2
	c-1.1,0-2.2-0.2-3.3-0.2c-1.6,0-2.6,0.6-2.8,1.7c-0.2,1,0.7,2.1,2,2.6c0.1,0.1,0.3,0.1,0.5,0.3c-1,0.2-1.7,0.4-2.5,0.6
	c-2.4,0.5-3.5,3-2.1,5c0.3,0.4,0.9,0.6,1.4,0.8c0.5,0.2,1,0.3,1.8,0.5c-0.6,0.4-1,0.7-1.3,1c-1.4,1.3-1.3,3.1-1.5,4.7
	c-0.4,3.5-0.7,7.1-1,10.7c-0.2,2.3-0.3,4.6-0.5,6.9c-0.3,3.4-0.6,6.7-0.9,10.1c-0.2,2.1-0.3,4.3-0.5,6.4c-0.3,3.6-0.6,7.1-0.9,10.7
	c-0.2,2.2-0.3,4.4-0.5,6.6c-0.3,3.5-0.6,6.9-0.9,10.4c-0.2,2.2-0.3,4.4-0.5,6.6C45.6,150.5,45.5,151.4,45.4,152.1z M61.6,47.7
	c-0.4-1.4-0.6-2.9-1.1-4.3c-0.4-1.2-1.1-2.4-1.8-3.4c-0.7-1.1-1.6-1.1-2.4-0.1c-0.5,0.7-1,1.5-1.2,2.3c-0.5,2.3-1.2,4.5-1.3,6.8
	c-0.1,2.7,0.4,5.3,1.6,7.8c0.6,1.1,2,1.4,2.7,0.5c1.2-1.5,2.2-3.2,2.6-5.2c0.2-0.8,0.4-1.5,0.7-2.3c0.1,0,0.2-0.1,0.3-0.1
	c1,4.6,4.1,7.1,8.4,8.6c-0.9,0.1-1.6,0.4-2.3,0.4c-3.7-0.1-7.3-0.2-11-0.3c-0.8,0-1.8,0-2.3,0.5c-0.5,0.4-0.9,1.6-0.7,2.2
	c0.2,0.7,1.1,1.6,1.8,1.7c2.1,0.3,4.2,0.2,6.3,0.3c1.6,0,3.2-0.1,4.8-0.1c1.9,0,3.9,0.1,5.8,0.2c4,0.1,8,0.2,12,0.2
	c1.6,0,3.1-0.2,4.7-0.5c0.8-0.1,1.4-0.7,1.2-1.5c-0.2-0.7-0.6-1.6-1.2-2C88.9,59,88,59,87.3,59c-3.7,0-7.3,0-11,0c-1,0-2-0.2-3-0.3
	c-0.1-0.1-0.1-0.3-0.2-0.4c4-1.1,6.6-3.8,8.2-7.7c0.4,0.5,0.6,0.8,0.8,1.1c0.7,1.6,1.2,3.3,2,4.9c0.9,1.9,2.7,1.7,3.7,0.5
	c0.5-0.7,1-1.4,1.3-2.2c1.2-2.9,1.2-5.9,0.7-9c-0.3-1.9-0.7-3.8-1.9-5.4c-1.1-1.3-2.3-1.4-3.2,0.1c-0.9,1.5-1.6,3.2-2.3,4.8
	c-0.2,0.4-0.4,0.8-0.6,1.3c-1.2-2.9-2.1-4.1-4.5-6c-0.6-0.5-1.3-0.8-1.9-1.1c-2.5-1.2-4.9-1.5-7.6-0.1
	C64.3,41.3,62.5,44.2,61.6,47.7z M78.1,37.5c0-0.1,0-0.2,0-0.4c2.7,0,5.4,0,8.1,0c1,0,1.6-0.6,1.5-1.6c-0.1-1.3-0.3-2.6-0.7-3.8
	c-0.4-1.2-0.8-2.5-1.5-3.5c-2.3-3.8-5.8-5.9-9.9-7.1c-0.8-0.2-0.9-0.5-0.6-1.3c0.2-0.5,0.4-1.5,0.1-1.8c-0.7-0.9-1.7-1.7-3-1.7
	c-0.5,0-0.9,0.4-1.4,0.6c-1.2,0.7-1.4,1.4-0.8,2.7c0.3,0.6,0.1,0.9-0.5,1c-0.9,0.2-1.8,0.4-2.6,0.7c-2.2,0.8-4.3,1.8-5.8,3.7
	c-0.9,1.1-1.7,2.3-2.6,3.5c-1.1,1.6-1.9,3.3-2.1,5.3c-0.2,2.2,0.3,2.9,2.5,3.4c0.7,0.1,1.4,0.1,2.1,0.1c2.8,0.1,5.6,0.2,8.5,0.3
	C72.3,37.6,75.2,37.5,78.1,37.5z M110.8,132.3c-0.9,2.1-1.6,4.2-2.5,6.2c-1.2,2.7-2.5,5.3-3.5,8c-0.4,1-0.8,2-0.3,3.4
	c0.8,2,2.5,2.2,4,2.6c1.5,0.5,3.2,0.2,4.8,0.2c2.3,0,4.6-0.2,6.9-0.3c0.7,0,1-0.3,1.1-1.1c0-0.7,0.2-1.4,0.2-2.1
	c0-0.7,0.2-1.5,0-2.1c-0.4-1.4-1.1-2.7-1.5-4.1c-0.8-2.6-1.6-5.2-2.4-7.8c-0.5-1.4-1.4-1.5-2.3-0.3c-0.3,0.4-0.5,1.1-0.4,1.6
	c0.2,1.2,0.5,2.3,0.9,3.4c0.8,2.5,1.6,4.9,2.4,7.4c0.3,0.8,0.6,1.6,0.9,2.5c-1.2-0.1-1.2-0.1-1.5-0.9c-0.4-1.4-0.8-2.8-1.2-4.2
	c-0.3-1.2-0.6-2.3-1-3.5c-0.9-2.4-1.9-4.8-2.7-7.2C112.4,133.3,112,132.8,110.8,132.3z"/>
<path class="st0" d="M122.6,178.5c-36.7,0-73.5,0-110.5,0c0-0.5-0.1-0.9-0.1-1.3c0-8.4,0-16.8,0-25.2c0-1,0.2-1.4,1.3-1.6
	c1.2-0.2,2.4-0.6,3.5-0.9c2.2-0.4,4,0.7,5.9,1.7c1.8,1,3.6,2,5.6,2.5c1.7,0.5,3.5,0.2,5.3,0.4c1.8,0.2,3.7,0.2,5.3,0.7
	c3.8,1.2,7.5,2.8,11.2,4.1c1.5,0.5,3.2,0.5,4.7,0.7c2.6,0.4,5.3,1,7.9,1.3c1.9,0.2,3.8,0,5.6,0c2.2,0,4.5-0.1,6.7,0.1
	c2.3,0.2,4.5,0.8,6.7,1.3c0.8,0.2,1.5,0.6,2.3,0.9c2.2,0.8,4.3,1.6,6.7,2c0.8,0.1,1.7,0.8,2.4,1.5c1.3,1.2,2.8,1.8,4.4,2.5
	c1.5,0.7,3,1,4.5,1.3c2,0.4,3.9,1.2,6,1.5c1.9,0.3,3.6,1,5.3,2c1.6,0.9,3.1,1.9,4.7,2.6C119.6,177.5,121.2,177.9,122.6,178.5z"/>
<path class="st0" d="M82.2,108c0,0.3,0.1,0.8-0.1,1.1c-0.3,0.5-0.8,1.2-1.2,1.2c-0.9-0.1-2.3,0.3-2.4-1.2c-0.1-1.6-0.1-3.2,0.2-4.8
	c0.2-1.3,1.4-0.9,2.3-0.8c0.8,0.1,1,0.7,1,1.5C81.9,105.9,82.1,106.9,82.2,108z"/>
<path class="st0" d="M62.3,135.3c-2.4-0.3-2.2-0.7-2.2-2.3c0-0.6,0.1-1.3,0.2-1.9c0.3-2.1,0.5-2.3,2.6-2c0.4,0.1,1,0.5,1.1,0.9
	c0.5,1.5,0.3,3-0.2,4.4C63.7,134.8,62.8,135,62.3,135.3z"/>
<path class="st0" d="M62.5,87.2c0-1.3,0-2.6,0-3.8c0-0.8,0.7-1.4,1.3-1.3c0.6,0.1,1.5,0.4,1.5,1.4c0,1,0.1,2,0,2.9
	c-0.1,0.8-0.6,1.3-1.5,1.2C63.4,87.5,63,87.3,62.5,87.2z"/>
<path d="M97.5,243.3c0.9-0.5,1.9-1,2.8-1.5c1.6-0.8,3.2-1.7,4.9-2.3c3.4-1.3,6.8-2.7,10.4-3.4c3.5-0.6,7-1.7,10.5-2.2
	c3-0.4,6.1-0.4,9.1-0.3c3.5,0.1,7,0.8,10.5,0.8c4.4,0.1,8.3,1.7,12.4,3c3.4,1.1,6.8,2.3,9.9,4.3c1.4,0.9,3.2,1.3,4.6,2.2
	c1.6,1,3,2.2,4.4,3.4c3.2,2.8,6.3,5.7,9.4,8.7c1.5,1.4,2.6,3.1,3.9,4.7c1.1,1.4,2.4,2.8,3.3,4.4c1.4,2.3,2.6,4.8,3.9,7.2
	c1,2,2,4,3.1,6c0.2,0.3,0.8,0.5,1.3,0.5c6.6,0,13.1,0.1,19.7,0c1.3,0,2.1,0.5,2.8,1.5c1.1,1.6,2.1,3.3,1.9,5.4
	c-0.2,1.7-1.9,3.5-3.9,3.4c-5.5-0.1-11,0-16.4,0c-0.4,0-0.7,0-1,0.1c-1,2.2,0,4.3,0.1,6.4c0.1,2.6,0.6,5.4-1.5,7.6
	c-1.2,1.3-2.6,1.7-4.3,1.8c-2.6,0.2-5.1-2.2-5.5-4.9c-0.3-2.8-0.7-5.6-1.2-8.3c-0.2-1.1-0.6-2.1-1-3.2c-37.9,0-75.9,0-114.2,0
	c-0.4,1.5-0.8,3.1-1.1,4.8c-0.4,2.1-0.8,4.2-1.2,6.4c-0.5,2.2-2,3.5-4.1,4.1c-1.7,0.5-4.4-0.9-5.4-2.3c-1.6-2.2-1-4.5-0.8-6.7
	c0.2-1.9,0.6-3.8,0.8-5.7c0-0.3,0-0.6-0.1-1.1c-0.5,0-1,0-1.4,0c-5.4,0-10.9,0-16.3,0c-2.3,0-4.4-1.4-5.1-3.6
	c-0.3-1,0.5-3.3,1.3-4.1c1.4-1.3,3-1.6,4.8-1.5c6.2,0.1,12.3,0,18.5,0c1.1,0,1.7-0.5,2.1-1.4c1.5-3,3-6,4.5-9
	c1.8-3.6,4.1-6.8,6.7-9.9c2.3-2.7,4.8-5.1,7.5-7.5c2.7-2.4,5.7-4.5,8.5-6.8C97.1,244.3,97.3,243.7,97.5,243.3L97.5,243.3z M81.8,279
	c35.6,0,71.1,0,106.7,0c-0.2-0.5-0.3-0.9-0.4-1.2c-2.2-4.5-4.9-8.6-8.1-12.4c-2.4-2.8-5.1-5.2-7.7-7.8c-3.2-3.2-7-5.7-11.2-7.5
	c-2.4-1-4.9-1.8-7.4-2.6c-2.4-0.8-4.9-1.6-7.3-2.1c-2.4-0.5-4.8-0.7-7.3-0.9c-2.6-0.1-5.2,0-7.8,0c-0.4,0-0.7,0-1.1,0.1
	c-3.1,0.5-6.3,1-9.4,1.6c-2,0.4-4,0.9-6,1.5c-1.5,0.5-2.9,1.3-4.3,2c-2.5,1.3-5.1,2.6-7.5,4c-2.4,1.4-4.2,3.6-6.6,5.1
	c-1.2,0.8-2.3,2-3.3,3.1c-1.6,1.7-3.1,3.5-4.5,5.3c-1.8,2.3-3.5,4.6-5,7C82.5,275.6,81.3,277,81.8,279z"/>
<path d="M97.5,243.3c-0.4,0-0.8,0-1.2,0c-0.9,0-1.4-0.4-1.5-1.3c-0.1-1.4-0.2-2.7-0.3-4.1c0-1.4-0.1-2.8,0-4.1
	c0.1-3.7,0.9-7.3,2.4-10.7c0.9-2,1.6-4.2,2.8-6.1c1.7-2.7,3.5-5.3,5.6-7.6c1.8-2,4-3.8,6.3-5.4c3.1-2.3,6.5-4,10-5.4
	c1.9-0.7,3.9-1.3,5.9-1.7c2.2-0.4,4.4-0.6,6.6-0.5c2.7,0.1,5.3,0.5,7.9,1c5.1,0.9,9.9,2.7,14.2,5.6c1.8,1.2,3.7,2.4,5.4,3.8
	c2.6,2.1,4.8,4.6,6.6,7.4c1.3,2.1,2.2,4.5,3.5,6.6c1.4,2.4,2.1,4.9,2.6,7.6c0.7,3.4,1.2,6.9,0.9,10.4c-0.1,1-0.2,2-0.3,3
	c-0.2,1.3-0.9,1.6-2,1c-2.1-1.1-4.2-2.3-6.4-3.3c-1.9-0.9-3.9-1.5-5.9-2.2c-2.3-0.8-4.6-1.6-7-2.2c-1.9-0.5-3.9-0.9-5.9-1.4
	c-1.3-0.3-2.6-0.6-3.7-1.3c-0.9-0.5-1.5-1.5-2.2-2.3c-3.1-3.3-6.9-3.8-10.9-2.4c-1.5,0.5-3.1,1.7-3.9,3.1c-1.4,2.1-3.3,2.7-5.5,3.1
	c-2.9,0.6-5.9,1-8.7,1.7c-5.1,1.3-9.8,3.4-14.3,6.1C97.9,242.1,97.4,242.5,97.5,243.3C97.5,243.3,97.5,243.3,97.5,243.3z"/>
<path d="M136,232.2c-2,0.1-4,0.2-6,0.3c-0.3,0-1-0.2-1-0.4c-0.1-0.4,0-1,0.3-1.3c1.9-1.9,4.2-2.9,7-2.2c1.3,0.4,2.6,0.9,3.8,1.6
	c0.4,0.2,0.5,0.9,0.7,1.4c-0.4,0.2-0.8,0.4-1.2,0.5c-1.2,0.1-2.4,0.2-3.7,0.3C136,232.3,136,232.3,136,232.2z"/>
<path d="M162.5,38c3.1-0.2,6.4,1.4,9.5,3.2c0.4,0.2,0.8,0.6,1,1c0.5,0.7,0.8,1.4-0.2,2.1c-0.9,0.6-1.8,1.2-2.7,1.9
	c-2.9,2.4-1.9,7,0.8,8.9c1.2,0.8,5,1,6.4-0.5c2.2-2.4,4.6-4.5,7-6.8c2.2-2.1,4.2-4.4,6.5-6.4c2-1.7,4.3-2.7,6.9-3.4
	c3.6-1,7-0.6,10.3,0.7c2.1,0.8,3.9,2.1,5.8,3.4c1,0.7,0.8,1.3-0.1,2.1c-1.2,1-2.4,1.8-3.4,3c-2.1,2.4-1,6.7,2.1,8.1
	c2.4,1.1,4.5,0.5,6.4-1c1.8-1.5,3.4-3.1,5.1-4.7c1.6-1.5,3.1-3,4.6-4.6c0.8-0.8,1.6-1.7,2.6-2.4c1.5-1.1,3-2.4,4.6-3.2
	c3.8-1.9,7.8-2,12-1c2.4,0.6,4.4,1.8,6.4,3.1c0.6,0.4,1.1,1.3,1.1,2.1c0,0.4-0.8,1-1.3,1.3c-3.3,1.9-4.2,3.6-3.5,7.3
	c0.4,2.1,3.6,4.1,5.8,3.7c0.8-0.2,1.7-0.3,2.5-0.6c0.9-0.4,1.3,0.1,1.5,0.7c0.3,0.8,0.4,1.8,0.3,2.7c-0.1,1.2-1.3,2-3,2
	c-2.2,0-4.4-0.1-6.5-0.5c-1.1-0.2-1.9-1.3-2.9-2c-2.3-1.7-3.3-4.1-3.5-6.8c-0.1-1.5,0.5-3.1,0.8-4.6c0.2-0.7,0.5-1.4,0.8-2.1
	c0.3-0.8,0-1.2-0.7-1.4c-2-0.3-3.8-0.3-5.8,0.3c-3.2,0.9-5.2,3.2-7.5,5.2c-1.3,1.1-2.5,2.3-3.8,3.4c-1.1,1-2.1,2.1-3.2,3.1
	c-1.6,1.5-3.2,2.9-4.8,4.3c-0.4,0.4-1,0.7-1.6,0.8c-2.5,0.5-5,1.4-7.6,0.4c-2.4-1-4.4-2.3-5.9-4.6c-1.2-1.9-1.3-3.9-1.7-6
	c-0.1-0.5,0.4-1.1,0.5-1.7c0.1-1.4,0.5-2.7,1.3-3.9c0.3-0.5,0.1-1-0.7-1.2c-2.7-0.9-5.3-0.5-7.6,1c-1.6,1-3.2,2-4.6,3.2
	c-1.7,1.5-3.1,3.2-4.7,4.8c-1.4,1.4-3,2.5-4.2,4c-1.4,1.6-3,2.8-4.8,3.7c-3.4,1.7-6.8,1.7-10.2-0.3c-2.6-1.5-4.3-3.6-4.9-6.3
	c-0.6-2.4-0.5-4.9,0.8-7.2c0.2-0.4,0.4-0.9,0.5-1.3c0.1-0.7-0.1-1.2-0.9-1.4c-2.6-0.5-5-0.2-7.4,1.1c-2.1,1-3.7,2.4-5.3,4
	c-1.5,1.5-3.1,2.9-4.7,4.2c-1,0.8-1.5,0.7-1.8-0.5c-0.5-2.2-0.4-4,1.7-5.6c1.3-1,2.3-2.3,3.5-3.4C153.2,39.7,157.1,38,162.5,38z"/>
<path d="M61.6,47.7c0.9-3.6,2.7-6.4,6.1-8.3c2.6-1.4,5.1-1.1,7.6,0.1c0.7,0.3,1.4,0.6,1.9,1.1c2.4,1.9,3.2,3.1,4.5,6
	c0.3-0.5,0.5-0.9,0.6-1.3c0.8-1.6,1.4-3.3,2.3-4.8c0.9-1.5,2.1-1.4,3.2-0.1c1.3,1.6,1.6,3.5,1.9,5.4c0.5,3,0.5,6.1-0.7,9
	c-0.3,0.8-0.8,1.6-1.3,2.2c-1,1.2-2.8,1.4-3.7-0.5c-0.7-1.6-1.3-3.3-2-4.9c-0.1-0.3-0.4-0.5-0.8-1.1c-1.7,3.9-4.2,6.5-8.2,7.7
	c0.1,0.1,0.1,0.3,0.2,0.4c1,0.1,2,0.3,3,0.3c3.7,0,7.3,0,11,0c0.7,0,1.6-0.1,2.1,0.3c0.6,0.4,1,1.3,1.2,2c0.2,0.8-0.4,1.4-1.2,1.5
	c-1.6,0.2-3.1,0.5-4.7,0.5c-4,0-8-0.1-12-0.2c-1.9,0-3.9-0.2-5.8-0.2c-1.6,0-3.2,0.1-4.8,0.1c-2.1,0-4.2,0-6.3-0.3
	c-0.7-0.1-1.6-1-1.8-1.7c-0.2-0.6,0.2-1.7,0.7-2.2c0.5-0.5,1.5-0.5,2.3-0.5c3.7,0.1,7.3,0.2,11,0.3c0.7,0,1.4-0.2,2.3-0.4
	c-4.3-1.6-7.4-4.1-8.4-8.6c-0.1,0-0.2,0.1-0.3,0.1c-0.2,0.8-0.5,1.5-0.7,2.3c-0.4,2-1.4,3.6-2.6,5.2c-0.7,0.9-2.2,0.6-2.7-0.5
	c-1.2-2.5-1.7-5.1-1.6-7.8c0.1-2.3,0.7-4.6,1.3-6.8c0.2-0.8,0.7-1.6,1.2-2.3c0.7-1,1.7-0.9,2.4,0.1c0.7,1.1,1.3,2.2,1.8,3.4
	C61,44.8,61.3,46.3,61.6,47.7z M79.1,47.7c-0.4-1-0.7-2.1-1.3-2.9c-1-1.1-2.1-2.3-3.4-2.8c-1.5-0.6-3.2-0.6-4.9,0.1
	c-1.8,0.8-3.7,1.4-4.3,3.5c-0.3,1-0.6,2.2-0.5,3.2c0.2,2.8,1.5,5.1,4.3,6.2c0.6,0.2,1.2,0.5,1.8,0.5c0.9,0,1.8,0,2.7-0.2
	c0.8-0.1,1.6-0.3,2.2-0.8C77.9,52.9,78.8,50.6,79.1,47.7z M86.6,44.3c-0.3,0.5-0.6,0.9-0.8,1.3c-1,2.4-0.9,4.9-0.1,7.3
	c0.1,0.3,0.4,0.5,0.7,0.8c0.3-0.3,0.7-0.6,0.9-1c0.2-0.7,0.4-1.5,0.5-2.3C87.7,48.4,87.8,46.3,86.6,44.3z M57.6,51.9
	c1-1.6,1-5.4,0-6.4C57.3,47.7,56.6,49.7,57.6,51.9z"/>
<path d="M78.1,37.5c-2.9,0-5.8,0-8.7,0c-2.8,0-5.6-0.2-8.5-0.3c-0.7,0-1.4,0-2.1-0.1c-2.1-0.4-2.7-1.2-2.5-3.4c0.2-2,1-3.7,2.1-5.3
	c0.8-1.2,1.7-2.4,2.6-3.5c1.5-1.9,3.6-2.9,5.8-3.7c0.9-0.3,1.7-0.5,2.6-0.7c0.6-0.1,0.8-0.4,0.5-1c-0.6-1.2-0.3-2,0.8-2.7
	c0.4-0.3,0.9-0.6,1.4-0.6c1.3,0,2.3,0.8,3,1.7c0.3,0.4,0.1,1.3-0.1,1.8c-0.3,0.8-0.2,1,0.6,1.3c4.1,1.2,7.6,3.4,9.9,7.1
	c0.7,1.1,1.1,2.3,1.5,3.5c0.4,1.2,0.5,2.5,0.7,3.8c0.1,1-0.4,1.6-1.5,1.6c-2.7,0-5.4,0-8.1,0C78.1,37.3,78.1,37.4,78.1,37.5z"/>
<path d="M110.8,132.3c1.2,0.4,1.6,0.9,1.9,1.9c0.8,2.4,1.8,4.8,2.7,7.2c0.4,1.1,0.7,2.3,1,3.5c0.4,1.4,0.8,2.8,1.2,4.2
	c0.2,0.9,0.2,0.9,1.5,0.9c-0.3-0.9-0.7-1.7-0.9-2.5c-0.8-2.5-1.7-4.9-2.4-7.4c-0.4-1.1-0.7-2.3-0.9-3.4c-0.1-0.5,0.1-1.2,0.4-1.6
	c0.9-1.2,1.8-1.1,2.3,0.3c0.9,2.6,1.6,5.2,2.4,7.8c0.4,1.4,1.1,2.7,1.5,4.1c0.2,0.6,0.1,1.4,0,2.1c0,0.7-0.2,1.4-0.2,2.1
	c0,0.7-0.3,1.1-1.1,1.1c-2.3,0.1-4.6,0.2-6.9,0.3c-1.6,0-3.3,0.3-4.8-0.2c-1.5-0.4-3.2-0.7-4-2.6c-0.5-1.4-0.1-2.4,0.3-3.4
	c1-2.7,2.4-5.3,3.5-8C109.2,136.5,110,134.5,110.8,132.3z"/>
<path class="st0" d="M81.8,279c-0.5-1.9,0.7-3.4,1.6-4.7c1.5-2.4,3.3-4.7,5-7c1.4-1.8,3-3.6,4.5-5.3c1-1.1,2-2.3,3.3-3.1
	c2.4-1.5,4.2-3.7,6.6-5.1c2.5-1.4,5-2.7,7.5-4c1.4-0.7,2.8-1.5,4.3-2c2-0.7,4-1.1,6-1.5c3.1-0.6,6.3-1.1,9.4-1.6
	c0.4-0.1,0.7-0.1,1.1-0.1c2.6,0,5.2-0.1,7.8,0c2.4,0.1,4.9,0.4,7.3,0.9c2.5,0.5,4.9,1.3,7.3,2.1c2.5,0.8,5,1.6,7.4,2.6
	c4.2,1.8,7.9,4.2,11.2,7.5c2.6,2.6,5.4,5,7.7,7.8c3.2,3.8,6,7.9,8.1,12.4c0.2,0.3,0.3,0.7,0.4,1.2C152.8,279,117.3,279,81.8,279z
	 M133.2,246.2c-2.5,0-5,0-7.4,0c-0.7,0-1.5,0.1-2.2,0.3c-3.1,0.9-6.1,1.8-9.2,2.8c-1.8,0.6-3.7,1.3-5.4,2.2c-2.2,1.2-4.2,2.6-6.3,4
	c-1.8,1.1-2,2.1-1,3.9c1.9,3.5,4.7,6.1,7.5,8.6c3.4,3,7.5,5.1,11.7,6.8c3.9,1.6,8,2.2,12.2,2.3c2.3,0.1,4.5-0.2,6.8-0.4
	c4.8-0.6,9.4-1.7,13.6-4.1c2.3-1.3,4.6-2.6,6.7-4.2c1.6-1.2,3-2.7,4.4-4.1c1.7-1.6,3.2-3.4,4.2-5.6c0.1-0.3,0.2-0.7,0.1-1
	c-0.6-1.8-2.2-2.6-3.7-3.5c-1.6-0.9-3.2-1.8-4.9-2.6c-2-1-3.9-2-6-2.7c-2.3-0.8-4.6-1.3-6.9-1.9c-3-0.7-6.1-1.3-9.2-1.1
	C136.5,246.3,134.8,246.2,133.2,246.2z"/>
<path class="st0" d="M79.1,47.7c-0.3,2.9-1.2,5.2-3.5,6.9c-0.6,0.4-1.4,0.6-2.2,0.8c-0.9,0.2-1.8,0.3-2.7,0.2
	c-0.6,0-1.2-0.3-1.8-0.5c-2.8-1.1-4-3.3-4.3-6.2c-0.1-1.1,0.2-2.2,0.5-3.2c0.7-2,2.5-2.7,4.3-3.5c1.6-0.7,3.4-0.7,4.9-0.1
	c1.3,0.5,2.5,1.7,3.4,2.8C78.4,45.6,78.7,46.7,79.1,47.7z"/>
<path class="st0" d="M86.6,44.3c1.3,2,1.2,4.1,1,6.1c-0.1,0.8-0.2,1.6-0.5,2.3c-0.1,0.4-0.6,0.6-0.9,1c-0.2-0.3-0.6-0.5-0.7-0.8
	c-0.8-2.4-0.9-4.9,0.1-7.3C85.9,45.1,86.2,44.8,86.6,44.3z"/>
<path class="st0" d="M57.6,51.9c-1-2.3-0.4-4.3,0-6.4C58.6,46.5,58.6,50.3,57.6,51.9z"/>
<path d="M133.2,246.2c1.7,0,3.4,0.1,5,0c3.1-0.2,6.2,0.4,9.2,1.1c2.3,0.5,4.7,1.1,6.9,1.9c2.1,0.7,4,1.7,6,2.7
	c1.7,0.8,3.3,1.6,4.9,2.6c1.5,0.9,3,1.7,3.7,3.5c0.1,0.3,0.1,0.7-0.1,1c-1,2.2-2.5,4-4.2,5.6c-1.5,1.4-2.8,2.9-4.4,4.1
	c-2.1,1.5-4.4,2.9-6.7,4.2c-4.2,2.4-8.8,3.5-13.6,4.1c-2.3,0.3-4.5,0.5-6.8,0.4c-4.2-0.1-8.4-0.7-12.2-2.3
	c-4.2-1.7-8.2-3.9-11.7-6.8c-2.9-2.5-5.7-5.2-7.5-8.6c-1-1.8-0.8-2.8,1-3.9c2.1-1.3,4.1-2.8,6.3-4c1.7-0.9,3.5-1.6,5.4-2.2
	c3-1,6.1-1.9,9.2-2.8c0.7-0.2,1.5-0.3,2.2-0.3C128.2,246.2,130.7,246.2,133.2,246.2z"/>
</svg>
